<svg width="1070" height="262" viewBox="0 0 1070 262" fill="none" xmlns="http://www.w3.org/2000/svg">
<path d="M336.482 46.08C336.482 48.64 335.782 50.72 334.382 52.32C333.022 53.92 331.182 55.1 328.862 55.86C326.542 56.62 323.982 57 321.182 57H300.242V14.4H324.962C326.962 14.4 328.682 14.94 330.122 16.02C331.602 17.06 332.722 18.42 333.482 20.1C334.282 21.78 334.682 23.52 334.682 25.32C334.682 27.28 334.162 29.18 333.122 31.02C332.122 32.86 330.602 34.24 328.562 35.16C331.002 35.88 332.922 37.14 334.322 38.94C335.762 40.74 336.482 43.12 336.482 46.08ZM324.602 43.68C324.602 42.96 324.462 42.34 324.182 41.82C323.942 41.26 323.602 40.82 323.162 40.5C322.722 40.18 322.202 40.02 321.602 40.02H311.942V47.16H321.182C321.822 47.16 322.402 47.02 322.922 46.74C323.442 46.46 323.842 46.06 324.122 45.54C324.442 45.02 324.602 44.4 324.602 43.68ZM311.942 24.36V30.9H319.922C320.442 30.9 320.942 30.82 321.422 30.66C321.902 30.46 322.302 30.12 322.622 29.64C322.942 29.16 323.102 28.48 323.102 27.6C323.102 26.8 322.962 26.18 322.682 25.74C322.442 25.26 322.102 24.92 321.662 24.72C321.262 24.48 320.802 24.36 320.282 24.36H311.942ZM339.148 47.46C339.148 45.34 339.728 43.48 340.888 41.88C342.048 40.24 343.648 38.96 345.688 38.04C347.768 37.12 350.128 36.66 352.768 36.66C354.008 36.66 355.168 36.76 356.248 36.96C357.368 37.16 358.328 37.46 359.128 37.86V36.9C359.128 35.42 358.688 34.32 357.808 33.6C356.968 32.88 355.588 32.52 353.668 32.52C351.908 32.52 350.248 32.82 348.688 33.42C347.168 33.98 345.568 34.82 343.888 35.94L340.588 28.86C342.708 27.5 344.928 26.5 347.248 25.86C349.608 25.18 352.128 24.84 354.808 24.84C359.808 24.84 363.668 25.98 366.388 28.26C369.148 30.5 370.528 33.84 370.528 38.28V44.4C370.528 45.48 370.688 46.24 371.008 46.68C371.328 47.08 371.888 47.32 372.688 47.4V57C371.768 57.2 370.888 57.34 370.048 57.42C369.248 57.54 368.528 57.6 367.888 57.6C365.848 57.6 364.288 57.24 363.208 56.52C362.168 55.76 361.488 54.66 361.168 53.22L360.928 52.08C359.528 53.88 357.908 55.26 356.068 56.22C354.228 57.14 352.268 57.6 350.188 57.6C348.108 57.6 346.228 57.16 344.548 56.28C342.868 55.4 341.548 54.2 340.588 52.68C339.628 51.12 339.148 49.38 339.148 47.46ZM357.628 48.24C358.068 47.92 358.428 47.58 358.708 47.22C358.988 46.82 359.128 46.42 359.128 46.02V43.68C358.488 43.44 357.748 43.24 356.908 43.08C356.108 42.92 355.388 42.84 354.748 42.84C353.388 42.84 352.228 43.18 351.268 43.86C350.348 44.54 349.888 45.4 349.888 46.44C349.888 47 350.048 47.52 350.368 48C350.688 48.44 351.128 48.8 351.688 49.08C352.248 49.32 352.888 49.44 353.608 49.44C354.288 49.44 354.988 49.34 355.708 49.14C356.468 48.9 357.108 48.6 357.628 48.24ZM376.806 57V25.44H388.206V57H376.806ZM376.806 22.8V13.2H388.206V22.8H376.806ZM402.614 25.44L407.114 33.18L407.714 34.44L408.314 33.18L412.814 25.44H424.394L414.254 41.04L424.694 57H413.114L408.254 49.26L407.714 48.06L407.174 49.26L402.314 57H390.734L401.174 41.34L391.034 25.44H402.614ZM441.33 57.6C438.57 57.6 436.11 57.18 433.95 56.34C431.79 55.46 429.97 54.28 428.49 52.8C427.05 51.32 425.95 49.62 425.19 47.7C424.43 45.78 424.05 43.76 424.05 41.64C424.05 38.6 424.71 35.82 426.03 33.3C427.35 30.74 429.29 28.7 431.85 27.18C434.41 25.62 437.57 24.84 441.33 24.84C445.09 24.84 448.25 25.6 450.81 27.12C453.37 28.64 455.31 30.64 456.63 33.12C457.95 35.6 458.61 38.3 458.61 41.22C458.61 41.82 458.57 42.44 458.49 43.08C458.45 43.68 458.39 44.22 458.31 44.7H436.17C436.25 45.82 436.55 46.74 437.07 47.46C437.63 48.14 438.31 48.64 439.11 48.96C439.95 49.28 440.81 49.44 441.69 49.44C442.93 49.44 444.09 49.16 445.17 48.6C446.29 48.04 447.03 47.26 447.39 46.26L457.05 49.02C456.21 50.7 455.03 52.18 453.51 53.46C452.03 54.74 450.27 55.76 448.23 56.52C446.19 57.24 443.89 57.6 441.33 57.6ZM435.93 37.86H446.37C446.25 36.82 445.95 35.94 445.47 35.22C445.03 34.5 444.43 33.94 443.67 33.54C442.95 33.14 442.11 32.94 441.15 32.94C440.19 32.94 439.33 33.14 438.57 33.54C437.85 33.94 437.25 34.5 436.77 35.22C436.33 35.94 436.05 36.82 435.93 37.86ZM507.569 57H496.169V39.24C496.169 37.68 495.809 36.56 495.089 35.88C494.409 35.16 493.609 34.8 492.689 34.8C492.049 34.8 491.369 35 490.649 35.4C489.929 35.76 489.269 36.28 488.669 36.96C488.069 37.64 487.589 38.42 487.229 39.3V57H475.829V25.44H486.089V30.12C486.849 28.96 487.809 28 488.969 27.24C490.129 26.44 491.469 25.84 492.989 25.44C494.509 25.04 496.169 24.84 497.969 24.84C500.129 24.84 501.849 25.22 503.129 25.98C504.409 26.74 505.369 27.72 506.009 28.92C506.649 30.12 507.069 31.38 507.269 32.7C507.469 33.98 507.569 35.16 507.569 36.24V57ZM528.635 57.6C525.835 57.6 523.355 57.16 521.195 56.28C519.035 55.4 517.215 54.2 515.735 52.68C514.295 51.12 513.195 49.36 512.435 47.4C511.715 45.44 511.355 43.38 511.355 41.22C511.355 39.06 511.715 37 512.435 35.04C513.195 33.04 514.295 31.28 515.735 29.76C517.215 28.24 519.035 27.04 521.195 26.16C523.355 25.28 525.835 24.84 528.635 24.84C531.475 24.84 533.955 25.28 536.075 26.16C538.235 27.04 540.035 28.24 541.475 29.76C542.955 31.28 544.055 33.04 544.775 35.04C545.535 37 545.915 39.06 545.915 41.22C545.915 43.38 545.535 45.44 544.775 47.4C544.055 49.36 542.955 51.12 541.475 52.68C540.035 54.2 538.235 55.4 536.075 56.28C533.955 57.16 531.475 57.6 528.635 57.6ZM523.055 41.22C523.055 42.62 523.295 43.84 523.775 44.88C524.255 45.88 524.915 46.66 525.755 47.22C526.595 47.74 527.555 48 528.635 48C529.715 48 530.675 47.74 531.515 47.22C532.355 46.66 533.015 45.88 533.495 44.88C533.975 43.84 534.215 42.62 534.215 41.22C534.215 39.82 533.975 38.62 533.495 37.62C533.015 36.58 532.355 35.8 531.515 35.28C530.675 34.72 529.715 34.44 528.635 34.44C527.555 34.44 526.595 34.72 525.755 35.28C524.915 35.8 524.255 36.58 523.775 37.62C523.295 38.62 523.055 39.82 523.055 41.22ZM562.61 57.6C559.85 57.6 557.13 57.16 554.45 56.28C551.81 55.36 549.57 54.04 547.73 52.32L551.63 45.3C553.59 46.58 555.47 47.58 557.27 48.3C559.11 49.02 560.77 49.38 562.25 49.38C563.09 49.38 563.71 49.28 564.11 49.08C564.51 48.84 564.71 48.46 564.71 47.94C564.71 47.58 564.57 47.28 564.29 47.04C564.01 46.8 563.55 46.56 562.91 46.32C562.31 46.08 561.53 45.82 560.57 45.54C558.09 44.66 556.01 43.84 554.33 43.08C552.69 42.32 551.45 41.4 550.61 40.32C549.81 39.2 549.41 37.72 549.41 35.88C549.41 33.72 549.95 31.82 551.03 30.18C552.11 28.5 553.65 27.18 555.65 26.22C557.69 25.26 560.13 24.78 562.97 24.78C565.09 24.78 567.21 25.12 569.33 25.8C571.49 26.44 573.57 27.62 575.57 29.34L571.25 36.3C569.25 35.06 567.55 34.18 566.15 33.66C564.79 33.14 563.57 32.88 562.49 32.88C561.97 32.88 561.51 32.94 561.11 33.06C560.75 33.18 560.47 33.36 560.27 33.6C560.07 33.84 559.97 34.16 559.97 34.56C559.97 34.96 560.11 35.3 560.39 35.58C560.67 35.82 561.11 36.06 561.71 36.3C562.31 36.5 563.07 36.74 563.99 37.02C566.71 37.82 568.93 38.64 570.65 39.48C572.37 40.28 573.63 41.26 574.43 42.42C575.27 43.58 575.69 45.1 575.69 46.98C575.69 50.3 574.51 52.9 572.15 54.78C569.83 56.66 566.65 57.6 562.61 57.6ZM592.669 57.6C589.909 57.6 587.189 57.16 584.509 56.28C581.869 55.36 579.629 54.04 577.789 52.32L581.689 45.3C583.649 46.58 585.529 47.58 587.329 48.3C589.169 49.02 590.829 49.38 592.309 49.38C593.149 49.38 593.769 49.28 594.169 49.08C594.569 48.84 594.769 48.46 594.769 47.94C594.769 47.58 594.629 47.28 594.349 47.04C594.069 46.8 593.609 46.56 592.969 46.32C592.369 46.08 591.589 45.82 590.629 45.54C588.149 44.66 586.069 43.84 584.389 43.08C582.749 42.32 581.509 41.4 580.669 40.32C579.869 39.2 579.469 37.72 579.469 35.88C579.469 33.72 580.009 31.82 581.089 30.18C582.169 28.5 583.709 27.18 585.709 26.22C587.749 25.26 590.189 24.78 593.029 24.78C595.149 24.78 597.269 25.12 599.389 25.8C601.549 26.44 603.629 27.62 605.629 29.34L601.309 36.3C599.309 35.06 597.609 34.18 596.209 33.66C594.849 33.14 593.629 32.88 592.549 32.88C592.029 32.88 591.569 32.94 591.169 33.06C590.809 33.18 590.529 33.36 590.329 33.6C590.129 33.84 590.029 34.16 590.029 34.56C590.029 34.96 590.169 35.3 590.449 35.58C590.729 35.82 591.169 36.06 591.769 36.3C592.369 36.5 593.129 36.74 594.049 37.02C596.769 37.82 598.989 38.64 600.709 39.48C602.429 40.28 603.689 41.26 604.489 42.42C605.329 43.58 605.749 45.1 605.749 46.98C605.749 50.3 604.569 52.9 602.209 54.78C599.889 56.66 596.709 57.6 592.669 57.6ZM625.608 57.6C622.808 57.6 620.328 57.16 618.168 56.28C616.008 55.4 614.188 54.2 612.708 52.68C611.268 51.12 610.168 49.36 609.408 47.4C608.688 45.44 608.328 43.38 608.328 41.22C608.328 39.06 608.688 37 609.408 35.04C610.168 33.04 611.268 31.28 612.708 29.76C614.188 28.24 616.008 27.04 618.168 26.16C620.328 25.28 622.808 24.84 625.608 24.84C628.448 24.84 630.928 25.28 633.048 26.16C635.208 27.04 637.008 28.24 638.448 29.76C639.928 31.28 641.028 33.04 641.748 35.04C642.508 37 642.888 39.06 642.888 41.22C642.888 43.38 642.508 45.44 641.748 47.4C641.028 49.36 639.928 51.12 638.448 52.68C637.008 54.2 635.208 55.4 633.048 56.28C630.928 57.16 628.448 57.6 625.608 57.6ZM620.028 41.22C620.028 42.62 620.268 43.84 620.748 44.88C621.228 45.88 621.888 46.66 622.728 47.22C623.568 47.74 624.528 48 625.608 48C626.688 48 627.648 47.74 628.488 47.22C629.328 46.66 629.988 45.88 630.468 44.88C630.948 43.84 631.188 42.62 631.188 41.22C631.188 39.82 630.948 38.62 630.468 37.62C629.988 36.58 629.328 35.8 628.488 35.28C627.648 34.72 626.688 34.44 625.608 34.44C624.528 34.44 623.568 34.72 622.728 35.28C621.888 35.8 621.228 36.58 620.748 37.62C620.268 38.62 620.028 39.82 620.028 41.22ZM669.203 14.4H682.283L695.843 57H683.963L681.383 48.66H670.043L667.523 57H655.583L669.203 14.4ZM679.523 40.86L675.743 25.86L671.783 40.86H679.523ZM719.843 57.6C717.563 57.6 715.583 57.16 713.903 56.28C712.223 55.36 710.923 54.04 710.003 52.32V69.78H698.603V25.44H708.503V30.18C709.623 28.46 711.003 27.14 712.643 26.22C714.323 25.3 716.343 24.84 718.703 24.84C720.823 24.84 722.763 25.24 724.523 26.04C726.283 26.84 727.823 27.98 729.143 29.46C730.463 30.94 731.483 32.66 732.203 34.62C732.923 36.58 733.283 38.74 733.283 41.1C733.283 44.26 732.703 47.08 731.543 49.56C730.383 52.04 728.783 54 726.743 55.44C724.743 56.88 722.443 57.6 719.843 57.6ZM715.883 48C716.723 48 717.483 47.82 718.163 47.46C718.883 47.1 719.503 46.6 720.023 45.96C720.543 45.32 720.943 44.58 721.223 43.74C721.503 42.9 721.643 42 721.643 41.04C721.643 40.04 721.483 39.14 721.163 38.34C720.883 37.54 720.463 36.86 719.903 36.3C719.343 35.7 718.683 35.24 717.923 34.92C717.163 34.6 716.323 34.44 715.403 34.44C714.883 34.44 714.363 34.52 713.843 34.68C713.363 34.8 712.903 35 712.463 35.28C712.023 35.52 711.583 35.84 711.143 36.24C710.743 36.64 710.363 37.12 710.003 37.68V43.14C710.363 44.06 710.843 44.9 711.443 45.66C712.083 46.38 712.783 46.96 713.543 47.4C714.303 47.8 715.083 48 715.883 48ZM758.69 57.6C756.41 57.6 754.43 57.16 752.75 56.28C751.07 55.36 749.77 54.04 748.85 52.32V69.78H737.45V25.44H747.35V30.18C748.47 28.46 749.85 27.14 751.49 26.22C753.17 25.3 755.19 24.84 757.55 24.84C759.67 24.84 761.61 25.24 763.37 26.04C765.13 26.84 766.67 27.98 767.99 29.46C769.31 30.94 770.33 32.66 771.05 34.62C771.77 36.58 772.13 38.74 772.13 41.1C772.13 44.26 771.55 47.08 770.39 49.56C769.23 52.04 767.63 54 765.59 55.44C763.59 56.88 761.29 57.6 758.69 57.6ZM754.73 48C755.57 48 756.33 47.82 757.01 47.46C757.73 47.1 758.35 46.6 758.87 45.96C759.39 45.32 759.79 44.58 760.07 43.74C760.35 42.9 760.49 42 760.49 41.04C760.49 40.04 760.33 39.14 760.01 38.34C759.73 37.54 759.31 36.86 758.75 36.3C758.19 35.7 757.53 35.24 756.77 34.92C756.01 34.6 755.17 34.44 754.25 34.44C753.73 34.44 753.21 34.52 752.69 34.68C752.21 34.8 751.75 35 751.31 35.28C750.87 35.52 750.43 35.84 749.99 36.24C749.59 36.64 749.21 37.12 748.85 37.68V43.14C749.21 44.06 749.69 44.9 750.29 45.66C750.93 46.38 751.63 46.96 752.39 47.4C753.15 47.8 753.93 48 754.73 48Z" fill="#023047"/>
<path d="M222.378 95.848L218.17 107H216.49L212.282 95.848H213.834L217.338 105.464L220.842 95.848H222.378ZM227.798 107.144C226.977 107.144 226.23 106.957 225.558 106.584C224.897 106.211 224.374 105.683 223.99 105C223.617 104.307 223.43 103.507 223.43 102.6C223.43 101.704 223.622 100.915 224.006 100.232C224.401 99.5387 224.934 99.0107 225.606 98.648C226.278 98.2747 227.03 98.088 227.862 98.088C228.694 98.088 229.446 98.2747 230.118 98.648C230.79 99.0107 231.318 99.5333 231.702 100.216C232.097 100.899 232.294 101.693 232.294 102.6C232.294 103.507 232.092 104.307 231.686 105C231.292 105.683 230.753 106.211 230.07 106.584C229.388 106.957 228.63 107.144 227.798 107.144ZM227.798 105.864C228.321 105.864 228.812 105.741 229.27 105.496C229.729 105.251 230.097 104.883 230.374 104.392C230.662 103.901 230.806 103.304 230.806 102.6C230.806 101.896 230.668 101.299 230.39 100.808C230.113 100.317 229.75 99.9547 229.302 99.72C228.854 99.4747 228.369 99.352 227.846 99.352C227.313 99.352 226.822 99.4747 226.374 99.72C225.937 99.9547 225.585 100.317 225.318 100.808C225.052 101.299 224.918 101.896 224.918 102.6C224.918 103.315 225.046 103.917 225.302 104.408C225.569 104.899 225.921 105.267 226.358 105.512C226.796 105.747 227.276 105.864 227.798 105.864ZM233.665 102.6C233.665 101.693 233.846 100.904 234.209 100.232C234.571 99.5493 235.073 99.0213 235.713 98.648C236.363 98.2747 237.105 98.088 237.937 98.088C239.014 98.088 239.899 98.3493 240.593 98.872C241.297 99.3947 241.761 100.12 241.985 101.048H240.417C240.267 100.515 239.974 100.093 239.537 99.784C239.11 99.4747 238.577 99.32 237.937 99.32C237.105 99.32 236.433 99.608 235.921 100.184C235.409 100.749 235.153 101.555 235.153 102.6C235.153 103.656 235.409 104.472 235.921 105.048C236.433 105.624 237.105 105.912 237.937 105.912C238.577 105.912 239.11 105.763 239.537 105.464C239.963 105.165 240.257 104.739 240.417 104.184H241.985C241.75 105.08 241.281 105.8 240.577 106.344C239.873 106.877 238.993 107.144 237.937 107.144C237.105 107.144 236.363 106.957 235.713 106.584C235.073 106.211 234.571 105.683 234.209 105C233.846 104.317 233.665 103.517 233.665 102.6ZM251.927 102.28C251.927 102.557 251.911 102.851 251.879 103.16H244.871C244.925 104.024 245.218 104.701 245.751 105.192C246.295 105.672 246.951 105.912 247.719 105.912C248.349 105.912 248.871 105.768 249.287 105.48C249.714 105.181 250.013 104.787 250.183 104.296H251.751C251.517 105.139 251.047 105.827 250.343 106.36C249.639 106.883 248.765 107.144 247.719 107.144C246.887 107.144 246.141 106.957 245.479 106.584C244.829 106.211 244.317 105.683 243.943 105C243.57 104.307 243.383 103.507 243.383 102.6C243.383 101.693 243.565 100.899 243.927 100.216C244.29 99.5333 244.797 99.0107 245.447 98.648C246.109 98.2747 246.866 98.088 247.719 98.088C248.551 98.088 249.287 98.2693 249.927 98.632C250.567 98.9947 251.058 99.496 251.399 100.136C251.751 100.765 251.927 101.48 251.927 102.28ZM250.423 101.976C250.423 101.421 250.301 100.947 250.055 100.552C249.81 100.147 249.474 99.8427 249.047 99.64C248.631 99.4267 248.167 99.32 247.655 99.32C246.919 99.32 246.29 99.5547 245.767 100.024C245.255 100.493 244.962 101.144 244.887 101.976H250.423ZM247.671 96.088L245.447 97.448V96.296L247.671 94.968L249.879 96.296V97.448L247.671 96.088ZM259.571 99.848C259.859 99.3467 260.285 98.9307 260.851 98.6C261.427 98.2587 262.093 98.088 262.851 98.088C263.629 98.088 264.333 98.2747 264.963 98.648C265.603 99.0213 266.104 99.5493 266.467 100.232C266.829 100.904 267.011 101.688 267.011 102.584C267.011 103.469 266.829 104.259 266.467 104.952C266.104 105.645 265.603 106.184 264.963 106.568C264.333 106.952 263.629 107.144 262.851 107.144C262.104 107.144 261.443 106.979 260.867 106.648C260.301 106.307 259.869 105.885 259.571 105.384V111.16H258.115V98.232H259.571V99.848ZM265.523 102.584C265.523 101.923 265.389 101.347 265.123 100.856C264.856 100.365 264.493 99.992 264.035 99.736C263.587 99.48 263.091 99.352 262.547 99.352C262.013 99.352 261.517 99.4853 261.059 99.752C260.611 100.008 260.248 100.387 259.971 100.888C259.704 101.379 259.571 101.949 259.571 102.6C259.571 103.261 259.704 103.843 259.971 104.344C260.248 104.835 260.611 105.213 261.059 105.48C261.517 105.736 262.013 105.864 262.547 105.864C263.091 105.864 263.587 105.736 264.035 105.48C264.493 105.213 264.856 104.835 265.123 104.344C265.389 103.843 265.523 103.256 265.523 102.584ZM272.751 107.144C271.93 107.144 271.183 106.957 270.511 106.584C269.85 106.211 269.327 105.683 268.943 105C268.57 104.307 268.383 103.507 268.383 102.6C268.383 101.704 268.575 100.915 268.959 100.232C269.354 99.5387 269.887 99.0107 270.559 98.648C271.231 98.2747 271.983 98.088 272.815 98.088C273.647 98.088 274.399 98.2747 275.071 98.648C275.743 99.0107 276.271 99.5333 276.655 100.216C277.05 100.899 277.247 101.693 277.247 102.6C277.247 103.507 277.045 104.307 276.639 105C276.245 105.683 275.706 106.211 275.023 106.584C274.341 106.957 273.583 107.144 272.751 107.144ZM272.751 105.864C273.274 105.864 273.765 105.741 274.223 105.496C274.682 105.251 275.05 104.883 275.327 104.392C275.615 103.901 275.759 103.304 275.759 102.6C275.759 101.896 275.621 101.299 275.343 100.808C275.066 100.317 274.703 99.9547 274.255 99.72C273.807 99.4747 273.322 99.352 272.799 99.352C272.266 99.352 271.775 99.4747 271.327 99.72C270.89 99.9547 270.538 100.317 270.271 100.808C270.005 101.299 269.871 101.896 269.871 102.6C269.871 103.315 269.999 103.917 270.255 104.408C270.522 104.899 270.874 105.267 271.311 105.512C271.749 105.747 272.229 105.864 272.751 105.864ZM278.618 102.584C278.618 101.688 278.799 100.904 279.162 100.232C279.524 99.5493 280.02 99.0213 280.65 98.648C281.29 98.2747 282.004 98.088 282.794 98.088C283.476 98.088 284.111 98.248 284.698 98.568C285.284 98.8773 285.732 99.288 286.042 99.8V95.16H287.514V107H286.042V105.352C285.754 105.875 285.327 106.307 284.762 106.648C284.196 106.979 283.535 107.144 282.778 107.144C281.999 107.144 281.29 106.952 280.65 106.568C280.02 106.184 279.524 105.645 279.162 104.952C278.799 104.259 278.618 103.469 278.618 102.584ZM286.042 102.6C286.042 101.939 285.908 101.363 285.642 100.872C285.375 100.381 285.012 100.008 284.554 99.752C284.106 99.4853 283.61 99.352 283.066 99.352C282.522 99.352 282.026 99.48 281.578 99.736C281.13 99.992 280.772 100.365 280.506 100.856C280.239 101.347 280.106 101.923 280.106 102.584C280.106 103.256 280.239 103.843 280.506 104.344C280.772 104.835 281.13 105.213 281.578 105.48C282.026 105.736 282.522 105.864 283.066 105.864C283.61 105.864 284.106 105.736 284.554 105.48C285.012 105.213 285.375 104.835 285.642 104.344C285.908 103.843 286.042 103.261 286.042 102.6ZM297.974 102.28C297.974 102.557 297.958 102.851 297.926 103.16H290.918C290.972 104.024 291.265 104.701 291.798 105.192C292.342 105.672 292.998 105.912 293.766 105.912C294.396 105.912 294.918 105.768 295.334 105.48C295.761 105.181 296.06 104.787 296.23 104.296H297.798C297.564 105.139 297.094 105.827 296.39 106.36C295.686 106.883 294.812 107.144 293.766 107.144C292.934 107.144 292.188 106.957 291.526 106.584C290.876 106.211 290.364 105.683 289.99 105C289.617 104.307 289.43 103.507 289.43 102.6C289.43 101.693 289.612 100.899 289.974 100.216C290.337 99.5333 290.844 99.0107 291.494 98.648C292.156 98.2747 292.913 98.088 293.766 98.088C294.598 98.088 295.334 98.2693 295.974 98.632C296.614 98.9947 297.105 99.496 297.446 100.136C297.798 100.765 297.974 101.48 297.974 102.28ZM296.47 101.976C296.47 101.421 296.348 100.947 296.102 100.552C295.857 100.147 295.521 99.8427 295.094 99.64C294.678 99.4267 294.214 99.32 293.702 99.32C292.966 99.32 292.337 99.5547 291.814 100.024C291.302 100.493 291.009 101.144 290.934 101.976H296.47ZM311.938 98.232V107H310.482V105.704C310.204 106.152 309.815 106.504 309.314 106.76C308.823 107.005 308.279 107.128 307.682 107.128C306.999 107.128 306.386 106.989 305.842 106.712C305.298 106.424 304.866 105.997 304.546 105.432C304.236 104.867 304.082 104.179 304.082 103.368V98.232H305.522V103.176C305.522 104.04 305.74 104.707 306.178 105.176C306.615 105.635 307.212 105.864 307.97 105.864C308.748 105.864 309.362 105.624 309.81 105.144C310.258 104.664 310.482 103.965 310.482 103.048V98.232H311.938ZM317.5 107.144C316.828 107.144 316.225 107.032 315.692 106.808C315.159 106.573 314.737 106.253 314.428 105.848C314.119 105.432 313.948 104.957 313.916 104.424H315.42C315.463 104.861 315.665 105.219 316.028 105.496C316.401 105.773 316.887 105.912 317.484 105.912C318.039 105.912 318.476 105.789 318.796 105.544C319.116 105.299 319.276 104.989 319.276 104.616C319.276 104.232 319.105 103.949 318.764 103.768C318.423 103.576 317.895 103.389 317.18 103.208C316.529 103.037 315.996 102.867 315.58 102.696C315.175 102.515 314.823 102.253 314.524 101.912C314.236 101.56 314.092 101.101 314.092 100.536C314.092 100.088 314.225 99.6773 314.492 99.304C314.759 98.9307 315.137 98.6373 315.628 98.424C316.119 98.2 316.679 98.088 317.308 98.088C318.279 98.088 319.063 98.3333 319.66 98.824C320.257 99.3147 320.577 99.9867 320.62 100.84H319.164C319.132 100.381 318.945 100.013 318.604 99.736C318.273 99.4587 317.825 99.32 317.26 99.32C316.737 99.32 316.321 99.432 316.012 99.656C315.703 99.88 315.548 100.173 315.548 100.536C315.548 100.824 315.639 101.064 315.82 101.256C316.012 101.437 316.247 101.587 316.524 101.704C316.812 101.811 317.207 101.933 317.708 102.072C318.337 102.243 318.849 102.413 319.244 102.584C319.639 102.744 319.975 102.989 320.252 103.32C320.54 103.651 320.689 104.083 320.7 104.616C320.7 105.096 320.567 105.528 320.3 105.912C320.033 106.296 319.655 106.6 319.164 106.824C318.684 107.037 318.129 107.144 317.5 107.144ZM322.211 102.584C322.211 101.688 322.393 100.904 322.755 100.232C323.118 99.5493 323.614 99.0213 324.243 98.648C324.883 98.2747 325.593 98.088 326.371 98.088C327.139 98.088 327.806 98.2533 328.371 98.584C328.937 98.9147 329.358 99.3307 329.635 99.832V98.232H331.107V107H329.635V105.368C329.347 105.88 328.915 106.307 328.339 106.648C327.774 106.979 327.113 107.144 326.355 107.144C325.577 107.144 324.873 106.952 324.243 106.568C323.614 106.184 323.118 105.645 322.755 104.952C322.393 104.259 322.211 103.469 322.211 102.584ZM329.635 102.6C329.635 101.939 329.502 101.363 329.235 100.872C328.969 100.381 328.606 100.008 328.147 99.752C327.699 99.4853 327.203 99.352 326.659 99.352C326.115 99.352 325.619 99.48 325.171 99.736C324.723 99.992 324.366 100.365 324.099 100.856C323.833 101.347 323.699 101.923 323.699 102.584C323.699 103.256 323.833 103.843 324.099 104.344C324.366 104.835 324.723 105.213 325.171 105.48C325.619 105.736 326.115 105.864 326.659 105.864C327.203 105.864 327.699 105.736 328.147 105.48C328.606 105.213 328.969 104.835 329.235 104.344C329.502 103.843 329.635 103.261 329.635 102.6ZM335.024 99.656C335.28 99.1547 335.643 98.7653 336.112 98.488C336.592 98.2107 337.173 98.072 337.856 98.072V99.576H337.472C335.84 99.576 335.024 100.461 335.024 102.232V107H333.568V98.232H335.024V99.656ZM348.074 98.072C349.141 98.072 350.005 98.3973 350.666 99.048C351.328 99.688 351.658 100.616 351.658 101.832V107H350.218V102.04C350.218 101.165 350 100.499 349.562 100.04C349.125 99.5707 348.528 99.336 347.77 99.336C347.002 99.336 346.389 99.576 345.93 100.056C345.482 100.536 345.258 101.235 345.258 102.152V107H343.802V98.232H345.258V99.48C345.546 99.032 345.936 98.6853 346.426 98.44C346.928 98.1947 347.477 98.072 348.074 98.072ZM357.861 107.144C357.039 107.144 356.293 106.957 355.621 106.584C354.959 106.211 354.437 105.683 354.053 105C353.679 104.307 353.493 103.507 353.493 102.6C353.493 101.704 353.685 100.915 354.069 100.232C354.463 99.5387 354.997 99.0107 355.669 98.648C356.341 98.2747 357.093 98.088 357.925 98.088C358.757 98.088 359.509 98.2747 360.181 98.648C360.853 99.0107 361.381 99.5333 361.765 100.216C362.159 100.899 362.357 101.693 362.357 102.6C362.357 103.507 362.154 104.307 361.749 105C361.354 105.683 360.815 106.211 360.133 106.584C359.45 106.957 358.693 107.144 357.861 107.144ZM357.861 105.864C358.383 105.864 358.874 105.741 359.333 105.496C359.791 105.251 360.159 104.883 360.437 104.392C360.725 103.901 360.869 103.304 360.869 102.6C360.869 101.896 360.73 101.299 360.453 100.808C360.175 100.317 359.813 99.9547 359.365 99.72C358.917 99.4747 358.431 99.352 357.909 99.352C357.375 99.352 356.885 99.4747 356.437 99.72C355.999 99.9547 355.647 100.317 355.381 100.808C355.114 101.299 354.981 101.896 354.981 102.6C354.981 103.315 355.109 103.917 355.365 104.408C355.631 104.899 355.983 105.267 356.421 105.512C356.858 105.747 357.338 105.864 357.861 105.864ZM367.375 107.144C366.703 107.144 366.1 107.032 365.567 106.808C365.034 106.573 364.612 106.253 364.303 105.848C363.994 105.432 363.823 104.957 363.791 104.424H365.295C365.338 104.861 365.54 105.219 365.903 105.496C366.276 105.773 366.762 105.912 367.359 105.912C367.914 105.912 368.351 105.789 368.671 105.544C368.991 105.299 369.151 104.989 369.151 104.616C369.151 104.232 368.98 103.949 368.639 103.768C368.298 103.576 367.77 103.389 367.055 103.208C366.404 103.037 365.871 102.867 365.455 102.696C365.05 102.515 364.698 102.253 364.399 101.912C364.111 101.56 363.967 101.101 363.967 100.536C363.967 100.088 364.1 99.6773 364.367 99.304C364.634 98.9307 365.012 98.6373 365.503 98.424C365.994 98.2 366.554 98.088 367.183 98.088C368.154 98.088 368.938 98.3333 369.535 98.824C370.132 99.3147 370.452 99.9867 370.495 100.84H369.039C369.007 100.381 368.82 100.013 368.479 99.736C368.148 99.4587 367.7 99.32 367.135 99.32C366.612 99.32 366.196 99.432 365.887 99.656C365.578 99.88 365.423 100.173 365.423 100.536C365.423 100.824 365.514 101.064 365.695 101.256C365.887 101.437 366.122 101.587 366.399 101.704C366.687 101.811 367.082 101.933 367.583 102.072C368.212 102.243 368.724 102.413 369.119 102.584C369.514 102.744 369.85 102.989 370.127 103.32C370.415 103.651 370.564 104.083 370.575 104.616C370.575 105.096 370.442 105.528 370.175 105.912C369.908 106.296 369.53 106.6 369.039 106.824C368.559 107.037 368.004 107.144 367.375 107.144ZM375.734 107.144C375.062 107.144 374.46 107.032 373.926 106.808C373.393 106.573 372.972 106.253 372.662 105.848C372.353 105.432 372.182 104.957 372.15 104.424H373.654C373.697 104.861 373.9 105.219 374.262 105.496C374.636 105.773 375.121 105.912 375.718 105.912C376.273 105.912 376.71 105.789 377.03 105.544C377.35 105.299 377.51 104.989 377.51 104.616C377.51 104.232 377.34 103.949 376.998 103.768C376.657 103.576 376.129 103.389 375.414 103.208C374.764 103.037 374.23 102.867 373.814 102.696C373.409 102.515 373.057 102.253 372.758 101.912C372.47 101.56 372.326 101.101 372.326 100.536C372.326 100.088 372.46 99.6773 372.726 99.304C372.993 98.9307 373.372 98.6373 373.862 98.424C374.353 98.2 374.913 98.088 375.542 98.088C376.513 98.088 377.297 98.3333 377.894 98.824C378.492 99.3147 378.812 99.9867 378.854 100.84H377.398C377.366 100.381 377.18 100.013 376.838 99.736C376.508 99.4587 376.06 99.32 375.494 99.32C374.972 99.32 374.556 99.432 374.246 99.656C373.937 99.88 373.782 100.173 373.782 100.536C373.782 100.824 373.873 101.064 374.054 101.256C374.246 101.437 374.481 101.587 374.758 101.704C375.046 101.811 375.441 101.933 375.942 102.072C376.572 102.243 377.084 102.413 377.478 102.584C377.873 102.744 378.209 102.989 378.486 103.32C378.774 103.651 378.924 104.083 378.934 104.616C378.934 105.096 378.801 105.528 378.534 105.912C378.268 106.296 377.889 106.6 377.398 106.824C376.918 107.037 376.364 107.144 375.734 107.144ZM384.814 107.144C383.992 107.144 383.246 106.957 382.574 106.584C381.912 106.211 381.39 105.683 381.006 105C380.632 104.307 380.446 103.507 380.446 102.6C380.446 101.704 380.638 100.915 381.022 100.232C381.416 99.5387 381.95 99.0107 382.622 98.648C383.294 98.2747 384.046 98.088 384.878 98.088C385.71 98.088 386.462 98.2747 387.134 98.648C387.806 99.0107 388.334 99.5333 388.718 100.216C389.112 100.899 389.31 101.693 389.31 102.6C389.31 103.507 389.107 104.307 388.702 105C388.307 105.683 387.768 106.211 387.086 106.584C386.403 106.957 385.646 107.144 384.814 107.144ZM384.814 105.864C385.336 105.864 385.827 105.741 386.286 105.496C386.744 105.251 387.112 104.883 387.39 104.392C387.678 103.901 387.822 103.304 387.822 102.6C387.822 101.896 387.683 101.299 387.406 100.808C387.128 100.317 386.766 99.9547 386.318 99.72C385.87 99.4747 385.384 99.352 384.862 99.352C384.328 99.352 383.838 99.4747 383.39 99.72C382.952 99.9547 382.6 100.317 382.334 100.808C382.067 101.299 381.934 101.896 381.934 102.6C381.934 103.315 382.062 103.917 382.318 104.408C382.584 104.899 382.936 105.267 383.374 105.512C383.811 105.747 384.291 105.864 384.814 105.864ZM394.946 102.584C394.946 101.688 395.127 100.904 395.49 100.232C395.852 99.5493 396.348 99.0213 396.978 98.648C397.618 98.2747 398.327 98.088 399.106 98.088C399.874 98.088 400.54 98.2533 401.106 98.584C401.671 98.9147 402.092 99.3307 402.37 99.832V98.232H403.842V107H402.37V105.368C402.082 105.88 401.65 106.307 401.074 106.648C400.508 106.979 399.847 107.144 399.09 107.144C398.311 107.144 397.607 106.952 396.978 106.568C396.348 106.184 395.852 105.645 395.49 104.952C395.127 104.259 394.946 103.469 394.946 102.584ZM402.37 102.6C402.37 101.939 402.236 101.363 401.97 100.872C401.703 100.381 401.34 100.008 400.882 99.752C400.434 99.4853 399.938 99.352 399.394 99.352C398.85 99.352 398.354 99.48 397.906 99.736C397.458 99.992 397.1 100.365 396.834 100.856C396.567 101.347 396.434 101.923 396.434 102.584C396.434 103.256 396.567 103.843 396.834 104.344C397.1 104.835 397.458 105.213 397.906 105.48C398.354 105.736 398.85 105.864 399.394 105.864C399.938 105.864 400.434 105.736 400.882 105.48C401.34 105.213 401.703 104.835 401.97 104.344C402.236 103.843 402.37 103.261 402.37 102.6ZM407.758 99.848C408.046 99.3467 408.473 98.9307 409.038 98.6C409.614 98.2587 410.281 98.088 411.038 98.088C411.817 98.088 412.521 98.2747 413.15 98.648C413.79 99.0213 414.292 99.5493 414.654 100.232C415.017 100.904 415.198 101.688 415.198 102.584C415.198 103.469 415.017 104.259 414.654 104.952C414.292 105.645 413.79 106.184 413.15 106.568C412.521 106.952 411.817 107.144 411.038 107.144C410.292 107.144 409.63 106.979 409.054 106.648C408.489 106.307 408.057 105.885 407.758 105.384V111.16H406.302V98.232H407.758V99.848ZM413.71 102.584C413.71 101.923 413.577 101.347 413.31 100.856C413.044 100.365 412.681 99.992 412.222 99.736C411.774 99.48 411.278 99.352 410.734 99.352C410.201 99.352 409.705 99.4853 409.246 99.752C408.798 100.008 408.436 100.387 408.158 100.888C407.892 101.379 407.758 101.949 407.758 102.6C407.758 103.261 407.892 103.843 408.158 104.344C408.436 104.835 408.798 105.213 409.246 105.48C409.705 105.736 410.201 105.864 410.734 105.864C411.278 105.864 411.774 105.736 412.222 105.48C412.681 105.213 413.044 104.835 413.31 104.344C413.577 103.843 413.71 103.256 413.71 102.584ZM418.571 95.16V107H417.115V95.16H418.571ZM421.804 96.808C421.527 96.808 421.292 96.712 421.1 96.52C420.908 96.328 420.812 96.0933 420.812 95.816C420.812 95.5387 420.908 95.304 421.1 95.112C421.292 94.92 421.527 94.824 421.804 94.824C422.071 94.824 422.295 94.92 422.476 95.112C422.668 95.304 422.764 95.5387 422.764 95.816C422.764 96.0933 422.668 96.328 422.476 96.52C422.295 96.712 422.071 96.808 421.804 96.808ZM422.508 98.232V107H421.052V98.232H422.508ZM424.446 102.6C424.446 101.693 424.627 100.904 424.99 100.232C425.352 99.5493 425.854 99.0213 426.494 98.648C427.144 98.2747 427.886 98.088 428.718 98.088C429.795 98.088 430.68 98.3493 431.374 98.872C432.078 99.3947 432.542 100.12 432.766 101.048H431.198C431.048 100.515 430.755 100.093 430.318 99.784C429.891 99.4747 429.358 99.32 428.718 99.32C427.886 99.32 427.214 99.608 426.702 100.184C426.19 100.749 425.934 101.555 425.934 102.6C425.934 103.656 426.19 104.472 426.702 105.048C427.214 105.624 427.886 105.912 428.718 105.912C429.358 105.912 429.891 105.763 430.318 105.464C430.744 105.165 431.038 104.739 431.198 104.184H432.766C432.531 105.08 432.062 105.8 431.358 106.344C430.654 106.877 429.774 107.144 428.718 107.144C427.886 107.144 427.144 106.957 426.494 106.584C425.854 106.211 425.352 105.683 424.99 105C424.627 104.317 424.446 103.517 424.446 102.6ZM434.165 102.584C434.165 101.688 434.346 100.904 434.709 100.232C435.071 99.5493 435.567 99.0213 436.197 98.648C436.837 98.2747 437.546 98.088 438.325 98.088C439.093 98.088 439.759 98.2533 440.325 98.584C440.89 98.9147 441.311 99.3307 441.589 99.832V98.232H443.061V107H441.589V105.368C441.301 105.88 440.869 106.307 440.293 106.648C439.727 106.979 439.066 107.144 438.309 107.144C437.53 107.144 436.826 106.952 436.197 106.568C435.567 106.184 435.071 105.645 434.709 104.952C434.346 104.259 434.165 103.469 434.165 102.584ZM441.589 102.6C441.589 101.939 441.455 101.363 441.189 100.872C440.922 100.381 440.559 100.008 440.101 99.752C439.653 99.4853 439.157 99.352 438.613 99.352C438.069 99.352 437.573 99.48 437.125 99.736C436.677 99.992 436.319 100.365 436.053 100.856C435.786 101.347 435.653 101.923 435.653 102.584C435.653 103.256 435.786 103.843 436.053 104.344C436.319 104.835 436.677 105.213 437.125 105.48C437.573 105.736 438.069 105.864 438.613 105.864C439.157 105.864 439.653 105.736 440.101 105.48C440.559 105.213 440.922 104.835 441.189 104.344C441.455 103.843 441.589 103.261 441.589 102.6ZM447.297 99.432V104.6C447.297 105.027 447.388 105.331 447.569 105.512C447.75 105.683 448.065 105.768 448.513 105.768H449.585V107H448.273C447.462 107 446.854 106.813 446.449 106.44C446.044 106.067 445.841 105.453 445.841 104.6V99.432H444.705V98.232H445.841V96.024H447.297V98.232H449.585V99.432H447.297ZM452.101 96.808C451.824 96.808 451.589 96.712 451.397 96.52C451.205 96.328 451.109 96.0933 451.109 95.816C451.109 95.5387 451.205 95.304 451.397 95.112C451.589 94.92 451.824 94.824 452.101 94.824C452.368 94.824 452.592 94.92 452.773 95.112C452.965 95.304 453.061 95.5387 453.061 95.816C453.061 96.0933 452.965 96.328 452.773 96.52C452.592 96.712 452.368 96.808 452.101 96.808ZM452.805 98.232V107H451.349V98.232H452.805ZM458.551 105.656L461.271 98.232H462.823L459.383 107H457.687L454.247 98.232H455.815L458.551 105.656ZM468.079 107.144C467.258 107.144 466.511 106.957 465.839 106.584C465.178 106.211 464.655 105.683 464.271 105C463.898 104.307 463.711 103.507 463.711 102.6C463.711 101.704 463.903 100.915 464.287 100.232C464.682 99.5387 465.215 99.0107 465.887 98.648C466.559 98.2747 467.311 98.088 468.143 98.088C468.975 98.088 469.727 98.2747 470.399 98.648C471.071 99.0107 471.599 99.5333 471.983 100.216C472.378 100.899 472.575 101.693 472.575 102.6C472.575 103.507 472.373 104.307 471.967 105C471.573 105.683 471.034 106.211 470.351 106.584C469.669 106.957 468.911 107.144 468.079 107.144ZM468.079 105.864C468.602 105.864 469.093 105.741 469.551 105.496C470.01 105.251 470.378 104.883 470.655 104.392C470.943 103.901 471.087 103.304 471.087 102.6C471.087 101.896 470.949 101.299 470.671 100.808C470.394 100.317 470.031 99.9547 469.583 99.72C469.135 99.4747 468.65 99.352 468.127 99.352C467.594 99.352 467.103 99.4747 466.655 99.72C466.218 99.9547 465.866 100.317 465.599 100.808C465.333 101.299 465.199 101.896 465.199 102.6C465.199 103.315 465.327 103.917 465.583 104.408C465.85 104.899 466.202 105.267 466.639 105.512C467.077 105.747 467.557 105.864 468.079 105.864ZM480.211 99.848C480.499 99.3467 480.926 98.9307 481.491 98.6C482.067 98.2587 482.734 98.088 483.491 98.088C484.27 98.088 484.974 98.2747 485.603 98.648C486.243 99.0213 486.745 99.5493 487.107 100.232C487.47 100.904 487.651 101.688 487.651 102.584C487.651 103.469 487.47 104.259 487.107 104.952C486.745 105.645 486.243 106.184 485.603 106.568C484.974 106.952 484.27 107.144 483.491 107.144C482.745 107.144 482.083 106.979 481.507 106.648C480.942 106.307 480.51 105.885 480.211 105.384V111.16H478.755V98.232H480.211V99.848ZM486.163 102.584C486.163 101.923 486.03 101.347 485.763 100.856C485.497 100.365 485.134 99.992 484.675 99.736C484.227 99.48 483.731 99.352 483.187 99.352C482.654 99.352 482.158 99.4853 481.699 99.752C481.251 100.008 480.889 100.387 480.611 100.888C480.345 101.379 480.211 101.949 480.211 102.6C480.211 103.261 480.345 103.843 480.611 104.344C480.889 104.835 481.251 105.213 481.699 105.48C482.158 105.736 482.654 105.864 483.187 105.864C483.731 105.864 484.227 105.736 484.675 105.48C485.134 105.213 485.497 104.835 485.763 104.344C486.03 103.843 486.163 103.256 486.163 102.584ZM489.024 102.584C489.024 101.688 489.205 100.904 489.568 100.232C489.931 99.5493 490.427 99.0213 491.056 98.648C491.696 98.2747 492.405 98.088 493.184 98.088C493.952 98.088 494.619 98.2533 495.184 98.584C495.749 98.9147 496.171 99.3307 496.448 99.832V98.232H497.92V107H496.448V105.368C496.16 105.88 495.728 106.307 495.152 106.648C494.587 106.979 493.925 107.144 493.168 107.144C492.389 107.144 491.685 106.952 491.056 106.568C490.427 106.184 489.931 105.645 489.568 104.952C489.205 104.259 489.024 103.469 489.024 102.584ZM496.448 102.6C496.448 101.939 496.315 101.363 496.048 100.872C495.781 100.381 495.419 100.008 494.96 99.752C494.512 99.4853 494.016 99.352 493.472 99.352C492.928 99.352 492.432 99.48 491.984 99.736C491.536 99.992 491.179 100.365 490.912 100.856C490.645 101.347 490.512 101.923 490.512 102.584C490.512 103.256 490.645 103.843 490.912 104.344C491.179 104.835 491.536 105.213 491.984 105.48C492.432 105.736 492.928 105.864 493.472 105.864C494.016 105.864 494.512 105.736 494.96 105.48C495.419 105.213 495.781 104.835 496.048 104.344C496.315 103.843 496.448 103.261 496.448 102.6ZM501.836 99.656C502.092 99.1547 502.455 98.7653 502.924 98.488C503.404 98.2107 503.986 98.072 504.668 98.072V99.576H504.284C502.652 99.576 501.836 100.461 501.836 102.232V107H500.38V98.232H501.836V99.656ZM505.805 102.584C505.805 101.688 505.987 100.904 506.349 100.232C506.712 99.5493 507.208 99.0213 507.837 98.648C508.477 98.2747 509.187 98.088 509.965 98.088C510.733 98.088 511.4 98.2533 511.965 98.584C512.531 98.9147 512.952 99.3307 513.229 99.832V98.232H514.701V107H513.229V105.368C512.941 105.88 512.509 106.307 511.933 106.648C511.368 106.979 510.707 107.144 509.949 107.144C509.171 107.144 508.467 106.952 507.837 106.568C507.208 106.184 506.712 105.645 506.349 104.952C505.987 104.259 505.805 103.469 505.805 102.584ZM513.229 102.6C513.229 101.939 513.096 101.363 512.829 100.872C512.563 100.381 512.2 100.008 511.741 99.752C511.293 99.4853 510.797 99.352 510.253 99.352C509.709 99.352 509.213 99.48 508.765 99.736C508.317 99.992 507.96 100.365 507.693 100.856C507.427 101.347 507.293 101.923 507.293 102.584C507.293 103.256 507.427 103.843 507.693 104.344C507.96 104.835 508.317 105.213 508.765 105.48C509.213 105.736 509.709 105.864 510.253 105.864C510.797 105.864 511.293 105.736 511.741 105.48C512.2 105.213 512.563 104.835 512.829 104.344C513.096 103.843 513.229 103.261 513.229 102.6ZM529.203 98.232V107H527.747V105.704C527.47 106.152 527.081 106.504 526.579 106.76C526.089 107.005 525.545 107.128 524.947 107.128C524.265 107.128 523.651 106.989 523.107 106.712C522.563 106.424 522.131 105.997 521.811 105.432C521.502 104.867 521.347 104.179 521.347 103.368V98.232H522.787V103.176C522.787 104.04 523.006 104.707 523.443 105.176C523.881 105.635 524.478 105.864 525.235 105.864C526.014 105.864 526.627 105.624 527.075 105.144C527.523 104.664 527.747 103.965 527.747 103.048V98.232H529.203ZM542.206 98.072C542.888 98.072 543.496 98.216 544.03 98.504C544.563 98.7813 544.984 99.2027 545.294 99.768C545.603 100.333 545.758 101.021 545.758 101.832V107H544.318V102.04C544.318 101.165 544.099 100.499 543.662 100.04C543.235 99.5707 542.654 99.336 541.918 99.336C541.16 99.336 540.558 99.5813 540.11 100.072C539.662 100.552 539.438 101.251 539.438 102.168V107H537.998V102.04C537.998 101.165 537.779 100.499 537.342 100.04C536.915 99.5707 536.334 99.336 535.598 99.336C534.84 99.336 534.238 99.5813 533.79 100.072C533.342 100.552 533.118 101.251 533.118 102.168V107H531.662V98.232H533.118V99.496C533.406 99.0373 533.79 98.6853 534.27 98.44C534.76 98.1947 535.299 98.072 535.886 98.072C536.622 98.072 537.272 98.2373 537.838 98.568C538.403 98.8987 538.824 99.384 539.102 100.024C539.347 99.4053 539.752 98.9253 540.318 98.584C540.883 98.2427 541.512 98.072 542.206 98.072ZM547.602 102.584C547.602 101.688 547.783 100.904 548.146 100.232C548.509 99.5493 549.005 99.0213 549.634 98.648C550.274 98.2747 550.983 98.088 551.762 98.088C552.53 98.088 553.197 98.2533 553.762 98.584C554.327 98.9147 554.749 99.3307 555.026 99.832V98.232H556.498V107H555.026V105.368C554.738 105.88 554.306 106.307 553.73 106.648C553.165 106.979 552.503 107.144 551.746 107.144C550.967 107.144 550.263 106.952 549.634 106.568C549.005 106.184 548.509 105.645 548.146 104.952C547.783 104.259 547.602 103.469 547.602 102.584ZM555.026 102.6C555.026 101.939 554.893 101.363 554.626 100.872C554.359 100.381 553.997 100.008 553.538 99.752C553.09 99.4853 552.594 99.352 552.05 99.352C551.506 99.352 551.01 99.48 550.562 99.736C550.114 99.992 549.757 100.365 549.49 100.856C549.223 101.347 549.09 101.923 549.09 102.584C549.09 103.256 549.223 103.843 549.49 104.344C549.757 104.835 550.114 105.213 550.562 105.48C551.01 105.736 551.506 105.864 552.05 105.864C552.594 105.864 553.09 105.736 553.538 105.48C553.997 105.213 554.359 104.835 554.626 104.344C554.893 103.843 555.026 103.261 555.026 102.6ZM573.768 98.072C574.451 98.072 575.059 98.216 575.592 98.504C576.126 98.7813 576.547 99.2027 576.856 99.768C577.166 100.333 577.32 101.021 577.32 101.832V107H575.88V102.04C575.88 101.165 575.662 100.499 575.224 100.04C574.798 99.5707 574.216 99.336 573.48 99.336C572.723 99.336 572.12 99.5813 571.672 100.072C571.224 100.552 571 101.251 571 102.168V107H569.56V102.04C569.56 101.165 569.342 100.499 568.904 100.04C568.478 99.5707 567.896 99.336 567.16 99.336C566.403 99.336 565.8 99.5813 565.352 100.072C564.904 100.552 564.68 101.251 564.68 102.168V107H563.224V98.232H564.68V99.496C564.968 99.0373 565.352 98.6853 565.832 98.44C566.323 98.1947 566.862 98.072 567.448 98.072C568.184 98.072 568.835 98.2373 569.4 98.568C569.966 98.8987 570.387 99.384 570.664 100.024C570.91 99.4053 571.315 98.9253 571.88 98.584C572.446 98.2427 573.075 98.072 573.768 98.072ZM587.709 102.28C587.709 102.557 587.693 102.851 587.661 103.16H580.653C580.706 104.024 580.999 104.701 581.533 105.192C582.077 105.672 582.733 105.912 583.501 105.912C584.13 105.912 584.653 105.768 585.069 105.48C585.495 105.181 585.794 104.787 585.965 104.296H587.533C587.298 105.139 586.829 105.827 586.125 106.36C585.421 106.883 584.546 107.144 583.501 107.144C582.669 107.144 581.922 106.957 581.261 106.584C580.61 106.211 580.098 105.683 579.725 105C579.351 104.307 579.165 103.507 579.165 102.6C579.165 101.693 579.346 100.899 579.709 100.216C580.071 99.5333 580.578 99.0107 581.229 98.648C581.89 98.2747 582.647 98.088 583.501 98.088C584.333 98.088 585.069 98.2693 585.709 98.632C586.349 98.9947 586.839 99.496 587.181 100.136C587.533 100.765 587.709 101.48 587.709 102.28ZM586.205 101.976C586.205 101.421 586.082 100.947 585.837 100.552C585.591 100.147 585.255 99.8427 584.829 99.64C584.413 99.4267 583.949 99.32 583.437 99.32C582.701 99.32 582.071 99.5547 581.549 100.024C581.037 100.493 580.743 101.144 580.669 101.976H586.205ZM591.086 95.16V107H589.63V95.16H591.086ZM597.92 98.072C598.581 98.072 599.179 98.216 599.712 98.504C600.245 98.7813 600.661 99.2027 600.96 99.768C601.269 100.333 601.424 101.021 601.424 101.832V107H599.984V102.04C599.984 101.165 599.765 100.499 599.328 100.04C598.891 99.5707 598.293 99.336 597.536 99.336C596.768 99.336 596.155 99.576 595.696 100.056C595.248 100.536 595.024 101.235 595.024 102.152V107H593.568V95.16H595.024V99.48C595.312 99.032 595.707 98.6853 596.208 98.44C596.72 98.1947 597.291 98.072 597.92 98.072ZM607.626 107.144C606.805 107.144 606.058 106.957 605.386 106.584C604.725 106.211 604.202 105.683 603.818 105C603.445 104.307 603.258 103.507 603.258 102.6C603.258 101.704 603.45 100.915 603.834 100.232C604.229 99.5387 604.762 99.0107 605.434 98.648C606.106 98.2747 606.858 98.088 607.69 98.088C608.522 98.088 609.274 98.2747 609.946 98.648C610.618 99.0107 611.146 99.5333 611.53 100.216C611.925 100.899 612.122 101.693 612.122 102.6C612.122 103.507 611.92 104.307 611.514 105C611.12 105.683 610.581 106.211 609.898 106.584C609.216 106.957 608.458 107.144 607.626 107.144ZM607.626 105.864C608.149 105.864 608.64 105.741 609.098 105.496C609.557 105.251 609.925 104.883 610.202 104.392C610.49 103.901 610.634 103.304 610.634 102.6C610.634 101.896 610.496 101.299 610.218 100.808C609.941 100.317 609.578 99.9547 609.13 99.72C608.682 99.4747 608.197 99.352 607.674 99.352C607.141 99.352 606.65 99.4747 606.202 99.72C605.765 99.9547 605.413 100.317 605.146 100.808C604.88 101.299 604.746 101.896 604.746 102.6C604.746 103.315 604.874 103.917 605.13 104.408C605.397 104.899 605.749 105.267 606.186 105.512C606.624 105.747 607.104 105.864 607.626 105.864ZM615.493 99.656C615.749 99.1547 616.111 98.7653 616.581 98.488C617.061 98.2107 617.642 98.072 618.325 98.072V99.576H617.941C616.309 99.576 615.493 100.461 615.493 102.232V107H614.037V98.232H615.493V99.656ZM632.271 102.28C632.271 102.557 632.255 102.851 632.223 103.16H625.215C625.268 104.024 625.562 104.701 626.095 105.192C626.639 105.672 627.295 105.912 628.063 105.912C628.692 105.912 629.215 105.768 629.631 105.48C630.058 105.181 630.356 104.787 630.527 104.296H632.095C631.86 105.139 631.391 105.827 630.687 106.36C629.983 106.883 629.108 107.144 628.063 107.144C627.231 107.144 626.484 106.957 625.823 106.584C625.172 106.211 624.66 105.683 624.287 105C623.914 104.307 623.727 103.507 623.727 102.6C623.727 101.693 623.908 100.899 624.271 100.216C624.634 99.5333 625.14 99.0107 625.791 98.648C626.452 98.2747 627.21 98.088 628.063 98.088C628.895 98.088 629.631 98.2693 630.271 98.632C630.911 98.9947 631.402 99.496 631.743 100.136C632.095 100.765 632.271 101.48 632.271 102.28ZM630.767 101.976C630.767 101.421 630.644 100.947 630.399 100.552C630.154 100.147 629.818 99.8427 629.391 99.64C628.975 99.4267 628.511 99.32 627.999 99.32C627.263 99.32 626.634 99.5547 626.111 100.024C625.599 100.493 625.306 101.144 625.231 101.976H630.767ZM638.769 107L636.689 103.736L634.689 107H633.169L636.001 102.648L633.169 98.232H634.817L636.897 101.48L638.881 98.232H640.401L637.585 102.568L640.417 107H638.769ZM643.305 99.848C643.593 99.3467 644.02 98.9307 644.585 98.6C645.161 98.2587 645.828 98.088 646.585 98.088C647.364 98.088 648.068 98.2747 648.697 98.648C649.337 99.0213 649.839 99.5493 650.201 100.232C650.564 100.904 650.745 101.688 650.745 102.584C650.745 103.469 650.564 104.259 650.201 104.952C649.839 105.645 649.337 106.184 648.697 106.568C648.068 106.952 647.364 107.144 646.585 107.144C645.839 107.144 645.177 106.979 644.601 106.648C644.036 106.307 643.604 105.885 643.305 105.384V111.16H641.849V98.232H643.305V99.848ZM649.257 102.584C649.257 101.923 649.124 101.347 648.857 100.856C648.591 100.365 648.228 99.992 647.769 99.736C647.321 99.48 646.825 99.352 646.281 99.352C645.748 99.352 645.252 99.4853 644.793 99.752C644.345 100.008 643.983 100.387 643.705 100.888C643.439 101.379 643.305 101.949 643.305 102.6C643.305 103.261 643.439 103.843 643.705 104.344C643.983 104.835 644.345 105.213 644.793 105.48C645.252 105.736 645.748 105.864 646.281 105.864C646.825 105.864 647.321 105.736 647.769 105.48C648.228 105.213 648.591 104.835 648.857 104.344C649.124 103.843 649.257 103.256 649.257 102.584ZM660.662 102.28C660.662 102.557 660.646 102.851 660.614 103.16H653.606C653.659 104.024 653.952 104.701 654.486 105.192C655.03 105.672 655.686 105.912 656.454 105.912C657.083 105.912 657.606 105.768 658.022 105.48C658.448 105.181 658.747 104.787 658.918 104.296H660.486C660.251 105.139 659.782 105.827 659.078 106.36C658.374 106.883 657.499 107.144 656.454 107.144C655.622 107.144 654.875 106.957 654.214 106.584C653.563 106.211 653.051 105.683 652.678 105C652.304 104.307 652.118 103.507 652.118 102.6C652.118 101.693 652.299 100.899 652.662 100.216C653.024 99.5333 653.531 99.0107 654.182 98.648C654.843 98.2747 655.6 98.088 656.454 98.088C657.286 98.088 658.022 98.2693 658.662 98.632C659.302 98.9947 659.792 99.496 660.134 100.136C660.486 100.765 660.662 101.48 660.662 102.28ZM659.158 101.976C659.158 101.421 659.035 100.947 658.79 100.552C658.544 100.147 658.208 99.8427 657.782 99.64C657.366 99.4267 656.902 99.32 656.39 99.32C655.654 99.32 655.024 99.5547 654.502 100.024C653.99 100.493 653.696 101.144 653.622 101.976H659.158ZM664.04 99.656C664.296 99.1547 664.658 98.7653 665.128 98.488C665.608 98.2107 666.189 98.072 666.872 98.072V99.576H666.488C664.856 99.576 664.04 100.461 664.04 102.232V107H662.584V98.232H664.04V99.656ZM669.304 96.808C669.027 96.808 668.792 96.712 668.6 96.52C668.408 96.328 668.312 96.0933 668.312 95.816C668.312 95.5387 668.408 95.304 668.6 95.112C668.792 94.92 669.027 94.824 669.304 94.824C669.571 94.824 669.795 94.92 669.976 95.112C670.168 95.304 670.264 95.5387 670.264 95.816C670.264 96.0933 670.168 96.328 669.976 96.52C669.795 96.712 669.571 96.808 669.304 96.808ZM670.008 98.232V107H668.552V98.232H670.008ZM680.49 102.28C680.49 102.557 680.474 102.851 680.442 103.16H673.434C673.487 104.024 673.78 104.701 674.314 105.192C674.858 105.672 675.514 105.912 676.282 105.912C676.911 105.912 677.434 105.768 677.85 105.48C678.276 105.181 678.575 104.787 678.746 104.296H680.314C680.079 105.139 679.61 105.827 678.906 106.36C678.202 106.883 677.327 107.144 676.282 107.144C675.45 107.144 674.703 106.957 674.042 106.584C673.391 106.211 672.879 105.683 672.506 105C672.132 104.307 671.946 103.507 671.946 102.6C671.946 101.693 672.127 100.899 672.49 100.216C672.852 99.5333 673.359 99.0107 674.01 98.648C674.671 98.2747 675.428 98.088 676.282 98.088C677.114 98.088 677.85 98.2693 678.49 98.632C679.13 98.9947 679.62 99.496 679.962 100.136C680.314 100.765 680.49 101.48 680.49 102.28ZM678.986 101.976C678.986 101.421 678.863 100.947 678.618 100.552C678.372 100.147 678.036 99.8427 677.61 99.64C677.194 99.4267 676.73 99.32 676.218 99.32C675.482 99.32 674.852 99.5547 674.33 100.024C673.818 100.493 673.524 101.144 673.45 101.976H678.986ZM676.234 96.088L674.01 97.448V96.296L676.234 94.968L678.442 96.296V97.448L676.234 96.088ZM686.684 98.072C687.75 98.072 688.614 98.3973 689.276 99.048C689.937 99.688 690.268 100.616 690.268 101.832V107H688.828V102.04C688.828 101.165 688.609 100.499 688.172 100.04C687.734 99.5707 687.137 99.336 686.38 99.336C685.612 99.336 684.998 99.576 684.54 100.056C684.092 100.536 683.868 101.235 683.868 102.152V107H682.412V98.232H683.868V99.48C684.156 99.032 684.545 98.6853 685.036 98.44C685.537 98.1947 686.086 98.072 686.684 98.072ZM692.102 102.6C692.102 101.693 692.283 100.904 692.646 100.232C693.009 99.5493 693.51 99.0213 694.15 98.648C694.801 98.2747 695.542 98.088 696.374 98.088C697.451 98.088 698.337 98.3493 699.03 98.872C699.734 99.3947 700.198 100.12 700.422 101.048H698.854C698.705 100.515 698.411 100.093 697.974 99.784C697.547 99.4747 697.014 99.32 696.374 99.32C695.542 99.32 694.87 99.608 694.358 100.184C693.846 100.749 693.59 101.555 693.59 102.6C693.59 103.656 693.846 104.472 694.358 105.048C694.87 105.624 695.542 105.912 696.374 105.912C697.014 105.912 697.547 105.763 697.974 105.464C698.401 105.165 698.694 104.739 698.854 104.184H700.422C700.187 105.08 699.718 105.8 699.014 106.344C698.31 106.877 697.43 107.144 696.374 107.144C695.542 107.144 694.801 106.957 694.15 106.584C693.51 106.211 693.009 105.683 692.646 105C692.283 104.317 692.102 103.517 692.102 102.6ZM703.117 96.808C702.839 96.808 702.605 96.712 702.413 96.52C702.221 96.328 702.125 96.0933 702.125 95.816C702.125 95.5387 702.221 95.304 702.413 95.112C702.605 94.92 702.839 94.824 703.117 94.824C703.383 94.824 703.607 94.92 703.789 95.112C703.981 95.304 704.077 95.5387 704.077 95.816C704.077 96.0933 703.981 96.328 703.789 96.52C703.607 96.712 703.383 96.808 703.117 96.808ZM703.821 98.232V107H702.365V98.232H703.821ZM705.758 102.584C705.758 101.688 705.94 100.904 706.302 100.232C706.665 99.5493 707.161 99.0213 707.79 98.648C708.43 98.2747 709.14 98.088 709.918 98.088C710.686 98.088 711.353 98.2533 711.918 98.584C712.484 98.9147 712.905 99.3307 713.182 99.832V98.232H714.654V107H713.182V105.368C712.894 105.88 712.462 106.307 711.886 106.648C711.321 106.979 710.66 107.144 709.902 107.144C709.124 107.144 708.42 106.952 707.79 106.568C707.161 106.184 706.665 105.645 706.302 104.952C705.94 104.259 705.758 103.469 705.758 102.584ZM713.182 102.6C713.182 101.939 713.049 101.363 712.782 100.872C712.516 100.381 712.153 100.008 711.694 99.752C711.246 99.4853 710.75 99.352 710.206 99.352C709.662 99.352 709.166 99.48 708.718 99.736C708.27 99.992 707.913 100.365 707.646 100.856C707.38 101.347 707.246 101.923 707.246 102.584C707.246 103.256 707.38 103.843 707.646 104.344C707.913 104.835 708.27 105.213 708.718 105.48C709.166 105.736 709.662 105.864 710.206 105.864C710.75 105.864 711.246 105.736 711.694 105.48C712.153 105.213 712.516 104.835 712.782 104.344C713.049 103.843 713.182 103.261 713.182 102.6ZM729.38 102.28C729.38 102.557 729.364 102.851 729.332 103.16H722.324C722.378 104.024 722.671 104.701 723.204 105.192C723.748 105.672 724.404 105.912 725.172 105.912C725.802 105.912 726.324 105.768 726.74 105.48C727.167 105.181 727.466 104.787 727.636 104.296H729.204C728.97 105.139 728.5 105.827 727.796 106.36C727.092 106.883 726.218 107.144 725.172 107.144C724.34 107.144 723.594 106.957 722.932 106.584C722.282 106.211 721.77 105.683 721.396 105C721.023 104.307 720.836 103.507 720.836 102.6C720.836 101.693 721.018 100.899 721.38 100.216C721.743 99.5333 722.25 99.0107 722.9 98.648C723.562 98.2747 724.319 98.088 725.172 98.088C726.004 98.088 726.74 98.2693 727.38 98.632C728.02 98.9947 728.511 99.496 728.852 100.136C729.204 100.765 729.38 101.48 729.38 102.28ZM727.876 101.976C727.876 101.421 727.754 100.947 727.508 100.552C727.263 100.147 726.927 99.8427 726.5 99.64C726.084 99.4267 725.62 99.32 725.108 99.32C724.372 99.32 723.743 99.5547 723.22 100.024C722.708 100.493 722.415 101.144 722.34 101.976H727.876ZM741.846 98.072C742.529 98.072 743.137 98.216 743.67 98.504C744.204 98.7813 744.625 99.2027 744.934 99.768C745.244 100.333 745.398 101.021 745.398 101.832V107H743.958V102.04C743.958 101.165 743.74 100.499 743.302 100.04C742.876 99.5707 742.294 99.336 741.558 99.336C740.801 99.336 740.198 99.5813 739.75 100.072C739.302 100.552 739.078 101.251 739.078 102.168V107H737.638V102.04C737.638 101.165 737.42 100.499 736.982 100.04C736.556 99.5707 735.974 99.336 735.238 99.336C734.481 99.336 733.878 99.5813 733.43 100.072C732.982 100.552 732.758 101.251 732.758 102.168V107H731.302V98.232H732.758V99.496C733.046 99.0373 733.43 98.6853 733.91 98.44C734.401 98.1947 734.94 98.072 735.526 98.072C736.262 98.072 736.913 98.2373 737.478 98.568C738.044 98.8987 738.465 99.384 738.742 100.024C738.988 99.4053 739.393 98.9253 739.958 98.584C740.524 98.2427 741.153 98.072 741.846 98.072ZM755.156 107.144C754.484 107.144 753.882 107.032 753.348 106.808C752.815 106.573 752.394 106.253 752.084 105.848C751.775 105.432 751.604 104.957 751.572 104.424H753.076C753.119 104.861 753.322 105.219 753.684 105.496C754.058 105.773 754.543 105.912 755.14 105.912C755.695 105.912 756.132 105.789 756.452 105.544C756.772 105.299 756.932 104.989 756.932 104.616C756.932 104.232 756.762 103.949 756.42 103.768C756.079 103.576 755.551 103.389 754.836 103.208C754.186 103.037 753.652 102.867 753.236 102.696C752.831 102.515 752.479 102.253 752.18 101.912C751.892 101.56 751.748 101.101 751.748 100.536C751.748 100.088 751.882 99.6773 752.148 99.304C752.415 98.9307 752.794 98.6373 753.284 98.424C753.775 98.2 754.335 98.088 754.964 98.088C755.935 98.088 756.719 98.3333 757.316 98.824C757.914 99.3147 758.234 99.9867 758.276 100.84H756.82C756.788 100.381 756.602 100.013 756.26 99.736C755.93 99.4587 755.482 99.32 754.916 99.32C754.394 99.32 753.978 99.432 753.668 99.656C753.359 99.88 753.204 100.173 753.204 100.536C753.204 100.824 753.295 101.064 753.476 101.256C753.668 101.437 753.903 101.587 754.18 101.704C754.468 101.811 754.863 101.933 755.364 102.072C755.994 102.243 756.506 102.413 756.9 102.584C757.295 102.744 757.631 102.989 757.908 103.32C758.196 103.651 758.346 104.083 758.356 104.616C758.356 105.096 758.223 105.528 757.956 105.912C757.69 106.296 757.311 106.6 756.82 106.824C756.34 107.037 755.786 107.144 755.156 107.144ZM770.956 98.072C771.638 98.072 772.246 98.216 772.78 98.504C773.313 98.7813 773.734 99.2027 774.044 99.768C774.353 100.333 774.508 101.021 774.508 101.832V107H773.068V102.04C773.068 101.165 772.849 100.499 772.412 100.04C771.985 99.5707 771.404 99.336 770.668 99.336C769.91 99.336 769.308 99.5813 768.86 100.072C768.412 100.552 768.188 101.251 768.188 102.168V107H766.748V102.04C766.748 101.165 766.529 100.499 766.092 100.04C765.665 99.5707 765.084 99.336 764.348 99.336C763.59 99.336 762.988 99.5813 762.54 100.072C762.092 100.552 761.868 101.251 761.868 102.168V107H760.412V98.232H761.868V99.496C762.156 99.0373 762.54 98.6853 763.02 98.44C763.51 98.1947 764.049 98.072 764.636 98.072C765.372 98.072 766.022 98.2373 766.588 98.568C767.153 98.8987 767.574 99.384 767.852 100.024C768.097 99.4053 768.502 98.9253 769.068 98.584C769.633 98.2427 770.262 98.072 770.956 98.072ZM776.352 102.584C776.352 101.688 776.533 100.904 776.896 100.232C777.259 99.5493 777.755 99.0213 778.384 98.648C779.024 98.2747 779.733 98.088 780.512 98.088C781.28 98.088 781.947 98.2533 782.512 98.584C783.077 98.9147 783.499 99.3307 783.776 99.832V98.232H785.248V107H783.776V105.368C783.488 105.88 783.056 106.307 782.48 106.648C781.915 106.979 781.253 107.144 780.496 107.144C779.717 107.144 779.013 106.952 778.384 106.568C777.755 106.184 777.259 105.645 776.896 104.952C776.533 104.259 776.352 103.469 776.352 102.584ZM783.776 102.6C783.776 101.939 783.643 101.363 783.376 100.872C783.109 100.381 782.747 100.008 782.288 99.752C781.84 99.4853 781.344 99.352 780.8 99.352C780.256 99.352 779.76 99.48 779.312 99.736C778.864 99.992 778.507 100.365 778.24 100.856C777.973 101.347 777.84 101.923 777.84 102.584C777.84 103.256 777.973 103.843 778.24 104.344C778.507 104.835 778.864 105.213 779.312 105.48C779.76 105.736 780.256 105.864 780.8 105.864C781.344 105.864 781.84 105.736 782.288 105.48C782.747 105.213 783.109 104.835 783.376 104.344C783.643 103.843 783.776 103.261 783.776 102.6ZM789.165 99.656C789.421 99.1547 789.783 98.7653 790.253 98.488C790.733 98.2107 791.314 98.072 791.997 98.072V99.576H791.613C789.981 99.576 789.165 100.461 789.165 102.232V107H787.709V98.232H789.165V99.656ZM795.453 99.432V104.6C795.453 105.027 795.544 105.331 795.725 105.512C795.907 105.683 796.221 105.768 796.669 105.768H797.741V107H796.429C795.619 107 795.011 106.813 794.605 106.44C794.2 106.067 793.997 105.453 793.997 104.6V99.432H792.861V98.232H793.997V96.024H795.453V98.232H797.741V99.432H795.453ZM800.961 99.848C801.249 99.3467 801.676 98.9307 802.241 98.6C802.817 98.2587 803.484 98.088 804.241 98.088C805.02 98.088 805.724 98.2747 806.353 98.648C806.993 99.0213 807.495 99.5493 807.857 100.232C808.22 100.904 808.401 101.688 808.401 102.584C808.401 103.469 808.22 104.259 807.857 104.952C807.495 105.645 806.993 106.184 806.353 106.568C805.724 106.952 805.02 107.144 804.241 107.144C803.495 107.144 802.833 106.979 802.257 106.648C801.692 106.307 801.26 105.885 800.961 105.384V111.16H799.505V98.232H800.961V99.848ZM806.913 102.584C806.913 101.923 806.78 101.347 806.513 100.856C806.247 100.365 805.884 99.992 805.425 99.736C804.977 99.48 804.481 99.352 803.937 99.352C803.404 99.352 802.908 99.4853 802.449 99.752C802.001 100.008 801.639 100.387 801.361 100.888C801.095 101.379 800.961 101.949 800.961 102.6C800.961 103.261 801.095 103.843 801.361 104.344C801.639 104.835 802.001 105.213 802.449 105.48C802.908 105.736 803.404 105.864 803.937 105.864C804.481 105.864 804.977 105.736 805.425 105.48C805.884 105.213 806.247 104.835 806.513 104.344C806.78 103.843 806.913 103.256 806.913 102.584ZM814.67 98.072C815.331 98.072 815.929 98.216 816.462 98.504C816.995 98.7813 817.411 99.2027 817.71 99.768C818.019 100.333 818.174 101.021 818.174 101.832V107H816.734V102.04C816.734 101.165 816.515 100.499 816.078 100.04C815.641 99.5707 815.043 99.336 814.286 99.336C813.518 99.336 812.905 99.576 812.446 100.056C811.998 100.536 811.774 101.235 811.774 102.152V107H810.318V95.16H811.774V99.48C812.062 99.032 812.457 98.6853 812.958 98.44C813.47 98.1947 814.041 98.072 814.67 98.072ZM824.376 107.144C823.555 107.144 822.808 106.957 822.136 106.584C821.475 106.211 820.952 105.683 820.568 105C820.195 104.307 820.008 103.507 820.008 102.6C820.008 101.704 820.2 100.915 820.584 100.232C820.979 99.5387 821.512 99.0107 822.184 98.648C822.856 98.2747 823.608 98.088 824.44 98.088C825.272 98.088 826.024 98.2747 826.696 98.648C827.368 99.0107 827.896 99.5333 828.28 100.216C828.675 100.899 828.872 101.693 828.872 102.6C828.872 103.507 828.67 104.307 828.264 105C827.87 105.683 827.331 106.211 826.648 106.584C825.966 106.957 825.208 107.144 824.376 107.144ZM824.376 105.864C824.899 105.864 825.39 105.741 825.848 105.496C826.307 105.251 826.675 104.883 826.952 104.392C827.24 103.901 827.384 103.304 827.384 102.6C827.384 101.896 827.246 101.299 826.968 100.808C826.691 100.317 826.328 99.9547 825.88 99.72C825.432 99.4747 824.947 99.352 824.424 99.352C823.891 99.352 823.4 99.4747 822.952 99.72C822.515 99.9547 822.163 100.317 821.896 100.808C821.63 101.299 821.496 101.896 821.496 102.6C821.496 103.315 821.624 103.917 821.88 104.408C822.147 104.899 822.499 105.267 822.936 105.512C823.374 105.747 823.854 105.864 824.376 105.864ZM835.059 98.072C836.125 98.072 836.989 98.3973 837.651 99.048C838.312 99.688 838.643 100.616 838.643 101.832V107H837.203V102.04C837.203 101.165 836.984 100.499 836.547 100.04C836.109 99.5707 835.512 99.336 834.755 99.336C833.987 99.336 833.373 99.576 832.915 100.056C832.467 100.536 832.243 101.235 832.243 102.152V107H830.787V98.232H832.243V99.48C832.531 99.032 832.92 98.6853 833.411 98.44C833.912 98.1947 834.461 98.072 835.059 98.072ZM849.021 102.28C849.021 102.557 849.005 102.851 848.973 103.16H841.965C842.018 104.024 842.312 104.701 842.845 105.192C843.389 105.672 844.045 105.912 844.813 105.912C845.442 105.912 845.965 105.768 846.381 105.48C846.808 105.181 847.106 104.787 847.277 104.296H848.845C848.61 105.139 848.141 105.827 847.437 106.36C846.733 106.883 845.858 107.144 844.813 107.144C843.981 107.144 843.234 106.957 842.573 106.584C841.922 106.211 841.41 105.683 841.037 105C840.664 104.307 840.477 103.507 840.477 102.6C840.477 101.693 840.658 100.899 841.021 100.216C841.384 99.5333 841.89 99.0107 842.541 98.648C843.202 98.2747 843.96 98.088 844.813 98.088C845.645 98.088 846.381 98.2693 847.021 98.632C847.661 98.9947 848.152 99.496 848.493 100.136C848.845 100.765 849.021 101.48 849.021 102.28ZM847.517 101.976C847.517 101.421 847.394 100.947 847.149 100.552C846.904 100.147 846.568 99.8427 846.141 99.64C845.725 99.4267 845.261 99.32 844.749 99.32C844.013 99.32 843.384 99.5547 842.861 100.024C842.349 100.493 842.056 101.144 841.981 101.976H847.517ZM854.047 107.144C853.375 107.144 852.772 107.032 852.239 106.808C851.706 106.573 851.284 106.253 850.975 105.848C850.666 105.432 850.495 104.957 850.463 104.424H851.967C852.01 104.861 852.212 105.219 852.575 105.496C852.948 105.773 853.434 105.912 854.031 105.912C854.586 105.912 855.023 105.789 855.343 105.544C855.663 105.299 855.823 104.989 855.823 104.616C855.823 104.232 855.652 103.949 855.311 103.768C854.97 103.576 854.442 103.389 853.727 103.208C853.076 103.037 852.543 102.867 852.127 102.696C851.722 102.515 851.37 102.253 851.071 101.912C850.783 101.56 850.639 101.101 850.639 100.536C850.639 100.088 850.772 99.6773 851.039 99.304C851.306 98.9307 851.684 98.6373 852.175 98.424C852.666 98.2 853.226 98.088 853.855 98.088C854.826 98.088 855.61 98.3333 856.207 98.824C856.804 99.3147 857.124 99.9867 857.167 100.84H855.711C855.679 100.381 855.492 100.013 855.151 99.736C854.82 99.4587 854.372 99.32 853.807 99.32C853.284 99.32 852.868 99.432 852.559 99.656C852.25 99.88 852.095 100.173 852.095 100.536C852.095 100.824 852.186 101.064 852.367 101.256C852.559 101.437 852.794 101.587 853.071 101.704C853.359 101.811 853.754 101.933 854.255 102.072C854.884 102.243 855.396 102.413 855.791 102.584C856.186 102.744 856.522 102.989 856.799 103.32C857.087 103.651 857.236 104.083 857.247 104.616C857.247 105.096 857.114 105.528 856.847 105.912C856.58 106.296 856.202 106.6 855.711 106.824C855.231 107.037 854.676 107.144 854.047 107.144Z" fill="#023047"/>
<rect width="254" height="100" transform="translate(210 162)" fill="black"/>
<path d="M271 182C254.428 182 241 195.428 241 212C241 228.572 254.428 242 271 242C287.572 242 301 228.572 301 212C301 195.428 287.572 182 271 182ZM259.616 225.11C259.432 225.424 259.168 225.684 258.852 225.864C258.536 226.044 258.177 226.137 257.813 226.135C257.442 226.138 257.078 226.038 256.761 225.846C256.525 225.709 256.318 225.527 256.152 225.31C255.987 225.092 255.865 224.845 255.796 224.581C255.726 224.317 255.709 224.042 255.746 223.772C255.783 223.501 255.873 223.241 256.011 223.005L258.058 219.6C258.162 219.425 258.31 219.279 258.487 219.178C258.664 219.077 258.864 219.024 259.068 219.025H259.371C260.856 219.025 261.896 219.918 262.198 220.783L259.616 225.11ZM276.953 218.414L263.543 218.429H254.63C254.349 218.43 254.072 218.374 253.814 218.265C253.555 218.155 253.322 217.995 253.128 217.792C252.934 217.59 252.782 217.35 252.684 217.088C252.585 216.826 252.54 216.546 252.553 216.266C252.596 215.141 253.577 214.289 254.696 214.289H261.156L268.816 201.251L266.335 197.025C265.777 196.062 266.025 194.793 266.982 194.188C267.218 194.035 267.483 193.931 267.76 193.884C268.037 193.836 268.321 193.844 268.594 193.909C268.868 193.974 269.126 194.093 269.352 194.26C269.578 194.427 269.768 194.638 269.911 194.88L271.237 197.145H271.252L272.579 194.88C272.722 194.639 272.912 194.429 273.138 194.263C273.363 194.097 273.62 193.978 273.893 193.914C274.165 193.849 274.448 193.84 274.724 193.887C275 193.934 275.264 194.036 275.5 194.188C276.452 194.793 276.697 196.062 276.135 197.029L273.654 201.255L271.244 205.365L266.008 214.293V214.308H273.724C274.691 214.308 275.903 214.827 276.393 215.663L276.436 215.75C276.869 216.485 277.114 216.99 277.114 217.725C277.107 217.964 277.054 218.199 276.957 218.418L276.953 218.414ZM287.366 218.429H283.735V218.443L286.39 222.958C286.675 223.434 286.763 224.002 286.633 224.541C286.504 225.081 286.168 225.548 285.697 225.842C285.371 226.04 284.997 226.145 284.615 226.146C284.252 226.145 283.895 226.051 283.58 225.872C283.264 225.694 282.999 225.436 282.812 225.125L278.89 218.447L276.452 214.296L273.308 208.92C272.852 208.152 272.605 207.279 272.589 206.387C272.574 205.494 272.792 204.613 273.221 203.83C273.842 202.733 274.317 202.446 274.317 202.446L281.312 214.277H287.327C288.452 214.277 289.418 215.142 289.47 216.252C289.481 216.535 289.435 216.816 289.334 217.08C289.233 217.344 289.08 217.585 288.884 217.788C288.688 217.991 288.453 218.153 288.192 218.263C287.932 218.373 287.653 218.429 287.37 218.429H287.366Z" fill="url(#paint0_linear_20_69)"/>
<path d="M327.224 216.28H319.928L318.584 220H316.28L322.328 203.368H324.848L330.872 220H328.568L327.224 216.28ZM326.6 214.504L323.576 206.056L320.552 214.504H326.6ZM335.692 209.272C336.124 208.52 336.764 207.896 337.612 207.4C338.476 206.888 339.476 206.632 340.612 206.632C341.78 206.632 342.836 206.912 343.78 207.472C344.74 208.032 345.492 208.824 346.036 209.848C346.58 210.856 346.852 212.032 346.852 213.376C346.852 214.704 346.58 215.888 346.036 216.928C345.492 217.968 344.74 218.776 343.78 219.352C342.836 219.928 341.78 220.216 340.612 220.216C339.492 220.216 338.5 219.968 337.636 219.472C336.788 218.96 336.14 218.328 335.692 217.576V226.24H333.508V206.848H335.692V209.272ZM344.62 213.376C344.62 212.384 344.42 211.52 344.02 210.784C343.62 210.048 343.076 209.488 342.388 209.104C341.716 208.72 340.972 208.528 340.156 208.528C339.356 208.528 338.612 208.728 337.924 209.128C337.252 209.512 336.708 210.08 336.292 210.832C335.892 211.568 335.692 212.424 335.692 213.4C335.692 214.392 335.892 215.264 336.292 216.016C336.708 216.752 337.252 217.32 337.924 217.72C338.612 218.104 339.356 218.296 340.156 218.296C340.972 218.296 341.716 218.104 342.388 217.72C343.076 217.32 343.62 216.752 344.02 216.016C344.42 215.264 344.62 214.384 344.62 213.376ZM351.911 209.272C352.343 208.52 352.983 207.896 353.831 207.4C354.695 206.888 355.695 206.632 356.831 206.632C357.999 206.632 359.055 206.912 359.999 207.472C360.959 208.032 361.711 208.824 362.255 209.848C362.799 210.856 363.071 212.032 363.071 213.376C363.071 214.704 362.799 215.888 362.255 216.928C361.711 217.968 360.959 218.776 359.999 219.352C359.055 219.928 357.999 220.216 356.831 220.216C355.711 220.216 354.719 219.968 353.855 219.472C353.007 218.96 352.359 218.328 351.911 217.576V226.24H349.727V206.848H351.911V209.272ZM360.839 213.376C360.839 212.384 360.639 211.52 360.239 210.784C359.839 210.048 359.295 209.488 358.607 209.104C357.935 208.72 357.191 208.528 356.375 208.528C355.575 208.528 354.831 208.728 354.143 209.128C353.471 209.512 352.927 210.08 352.511 210.832C352.111 211.568 351.911 212.424 351.911 213.4C351.911 214.392 352.111 215.264 352.511 216.016C352.927 216.752 353.471 217.32 354.143 217.72C354.831 218.104 355.575 218.296 356.375 218.296C357.191 218.296 357.935 218.104 358.607 217.72C359.295 217.32 359.839 216.752 360.239 216.016C360.639 215.264 360.839 214.384 360.839 213.376ZM377.648 220.168C376.544 220.168 375.552 219.976 374.672 219.592C373.808 219.192 373.128 218.648 372.632 217.96C372.136 217.256 371.88 216.448 371.864 215.536H374.192C374.272 216.32 374.592 216.984 375.152 217.528C375.728 218.056 376.56 218.32 377.648 218.32C378.688 218.32 379.504 218.064 380.096 217.552C380.704 217.024 381.008 216.352 381.008 215.536C381.008 214.896 380.832 214.376 380.48 213.976C380.128 213.576 379.688 213.272 379.16 213.064C378.632 212.856 377.92 212.632 377.024 212.392C375.92 212.104 375.032 211.816 374.36 211.528C373.704 211.24 373.136 210.792 372.656 210.184C372.192 209.56 371.96 208.728 371.96 207.688C371.96 206.776 372.192 205.968 372.656 205.264C373.12 204.56 373.768 204.016 374.6 203.632C375.448 203.248 376.416 203.056 377.504 203.056C379.072 203.056 380.352 203.448 381.344 204.232C382.352 205.016 382.92 206.056 383.048 207.352H380.648C380.568 206.712 380.232 206.152 379.64 205.672C379.048 205.176 378.264 204.928 377.288 204.928C376.376 204.928 375.632 205.168 375.056 205.648C374.48 206.112 374.192 206.768 374.192 207.616C374.192 208.224 374.36 208.72 374.696 209.104C375.048 209.488 375.472 209.784 375.968 209.992C376.48 210.184 377.192 210.408 378.104 210.664C379.208 210.968 380.096 211.272 380.768 211.576C381.44 211.864 382.016 212.32 382.496 212.944C382.976 213.552 383.216 214.384 383.216 215.44C383.216 216.256 383 217.024 382.568 217.744C382.136 218.464 381.496 219.048 380.648 219.496C379.8 219.944 378.8 220.168 377.648 220.168ZM389.094 208.648V216.4C389.094 217.04 389.23 217.496 389.502 217.768C389.774 218.024 390.246 218.152 390.918 218.152H392.526V220H390.558C389.342 220 388.43 219.72 387.822 219.16C387.214 218.6 386.91 217.68 386.91 216.4V208.648H385.206V206.848H386.91V203.536H389.094V206.848H392.526V208.648H389.094ZM400.908 220.216C399.676 220.216 398.556 219.936 397.548 219.376C396.556 218.816 395.772 218.024 395.196 217C394.636 215.96 394.356 214.76 394.356 213.4C394.356 212.056 394.644 210.872 395.22 209.848C395.812 208.808 396.612 208.016 397.62 207.472C398.628 206.912 399.756 206.632 401.004 206.632C402.252 206.632 403.38 206.912 404.388 207.472C405.396 208.016 406.188 208.8 406.764 209.824C407.356 210.848 407.652 212.04 407.652 213.4C407.652 214.76 407.348 215.96 406.74 217C406.148 218.024 405.34 218.816 404.316 219.376C403.292 219.936 402.156 220.216 400.908 220.216ZM400.908 218.296C401.692 218.296 402.428 218.112 403.116 217.744C403.804 217.376 404.356 216.824 404.772 216.088C405.204 215.352 405.42 214.456 405.42 213.4C405.42 212.344 405.212 211.448 404.796 210.712C404.38 209.976 403.836 209.432 403.164 209.08C402.492 208.712 401.764 208.528 400.98 208.528C400.18 208.528 399.444 208.712 398.772 209.08C398.116 209.432 397.588 209.976 397.188 210.712C396.788 211.448 396.588 212.344 396.588 213.4C396.588 214.472 396.78 215.376 397.164 216.112C397.564 216.848 398.092 217.4 398.748 217.768C399.404 218.12 400.124 218.296 400.908 218.296ZM412.708 208.984C413.092 208.232 413.636 207.648 414.34 207.232C415.06 206.816 415.932 206.608 416.956 206.608V208.864H416.38C413.932 208.864 412.708 210.192 412.708 212.848V220H410.524V206.848H412.708V208.984ZM431.477 212.92C431.477 213.336 431.453 213.776 431.405 214.24H420.893C420.973 215.536 421.413 216.552 422.213 217.288C423.029 218.008 424.013 218.368 425.165 218.368C426.109 218.368 426.893 218.152 427.517 217.72C428.157 217.272 428.605 216.68 428.861 215.944H431.213C430.861 217.208 430.157 218.24 429.101 219.04C428.045 219.824 426.733 220.216 425.165 220.216C423.917 220.216 422.797 219.936 421.805 219.376C420.829 218.816 420.061 218.024 419.501 217C418.941 215.96 418.661 214.76 418.661 213.4C418.661 212.04 418.933 210.848 419.477 209.824C420.021 208.8 420.781 208.016 421.757 207.472C422.749 206.912 423.885 206.632 425.165 206.632C426.413 206.632 427.517 206.904 428.477 207.448C429.437 207.992 430.173 208.744 430.685 209.704C431.213 210.648 431.477 211.72 431.477 212.92ZM429.221 212.464C429.221 211.632 429.037 210.92 428.669 210.328C428.301 209.72 427.797 209.264 427.157 208.96C426.533 208.64 425.837 208.48 425.069 208.48C423.965 208.48 423.021 208.832 422.237 209.536C421.469 210.24 421.029 211.216 420.917 212.464H429.221Z" fill="white"/>
<rect width="310" height="100" transform="translate(210 162)" fill="black"/>
<path d="M271 182C254.428 182 241 195.428 241 212C241 228.572 254.428 242 271 242C287.572 242 301 228.572 301 212C301 195.428 287.572 182 271 182ZM259.616 225.11C259.432 225.424 259.168 225.684 258.852 225.864C258.536 226.044 258.177 226.137 257.813 226.135C257.442 226.138 257.078 226.038 256.761 225.846C256.525 225.709 256.318 225.527 256.152 225.31C255.987 225.092 255.865 224.845 255.796 224.581C255.726 224.317 255.709 224.042 255.746 223.772C255.783 223.501 255.873 223.241 256.011 223.005L258.058 219.6C258.162 219.425 258.31 219.279 258.487 219.178C258.664 219.077 258.864 219.024 259.068 219.025H259.371C260.856 219.025 261.896 219.918 262.198 220.783L259.616 225.11ZM276.953 218.414L263.543 218.429H254.63C254.349 218.43 254.072 218.374 253.814 218.265C253.555 218.155 253.322 217.995 253.128 217.792C252.934 217.59 252.782 217.35 252.684 217.088C252.585 216.826 252.54 216.546 252.553 216.266C252.596 215.141 253.577 214.289 254.696 214.289H261.156L268.816 201.251L266.335 197.025C265.777 196.062 266.025 194.793 266.982 194.188C267.218 194.035 267.483 193.931 267.76 193.884C268.037 193.836 268.321 193.844 268.594 193.909C268.868 193.974 269.126 194.093 269.352 194.26C269.578 194.427 269.768 194.638 269.911 194.88L271.237 197.145H271.252L272.579 194.88C272.722 194.639 272.912 194.429 273.138 194.263C273.363 194.097 273.62 193.978 273.893 193.914C274.165 193.849 274.448 193.84 274.724 193.887C275 193.934 275.264 194.036 275.5 194.188C276.452 194.793 276.697 196.062 276.135 197.029L273.654 201.255L271.244 205.365L266.008 214.293V214.308H273.724C274.691 214.308 275.903 214.827 276.393 215.663L276.436 215.75C276.869 216.485 277.114 216.99 277.114 217.725C277.107 217.964 277.054 218.199 276.957 218.418L276.953 218.414ZM287.366 218.429H283.735V218.443L286.39 222.958C286.675 223.434 286.763 224.002 286.633 224.541C286.504 225.081 286.168 225.548 285.697 225.842C285.371 226.04 284.997 226.145 284.615 226.146C284.252 226.145 283.895 226.051 283.58 225.872C283.264 225.694 282.999 225.436 282.812 225.125L278.89 218.447L276.452 214.296L273.308 208.92C272.852 208.152 272.605 207.279 272.589 206.387C272.574 205.494 272.792 204.613 273.221 203.83C273.842 202.733 274.317 202.446 274.317 202.446L281.312 214.277H287.327C288.452 214.277 289.418 215.142 289.47 216.252C289.481 216.535 289.435 216.816 289.334 217.08C289.233 217.344 289.08 217.585 288.884 217.788C288.688 217.991 288.453 218.153 288.192 218.263C287.932 218.373 287.653 218.429 287.37 218.429H287.366Z" fill="url(#paint1_linear_20_69)"/>
<path d="M327.224 216.28H319.928L318.584 220H316.28L322.328 203.368H324.848L330.872 220H328.568L327.224 216.28ZM326.6 214.504L323.576 206.056L320.552 214.504H326.6ZM335.692 209.272C336.124 208.52 336.764 207.896 337.612 207.4C338.476 206.888 339.476 206.632 340.612 206.632C341.78 206.632 342.836 206.912 343.78 207.472C344.74 208.032 345.492 208.824 346.036 209.848C346.58 210.856 346.852 212.032 346.852 213.376C346.852 214.704 346.58 215.888 346.036 216.928C345.492 217.968 344.74 218.776 343.78 219.352C342.836 219.928 341.78 220.216 340.612 220.216C339.492 220.216 338.5 219.968 337.636 219.472C336.788 218.96 336.14 218.328 335.692 217.576V226.24H333.508V206.848H335.692V209.272ZM344.62 213.376C344.62 212.384 344.42 211.52 344.02 210.784C343.62 210.048 343.076 209.488 342.388 209.104C341.716 208.72 340.972 208.528 340.156 208.528C339.356 208.528 338.612 208.728 337.924 209.128C337.252 209.512 336.708 210.08 336.292 210.832C335.892 211.568 335.692 212.424 335.692 213.4C335.692 214.392 335.892 215.264 336.292 216.016C336.708 216.752 337.252 217.32 337.924 217.72C338.612 218.104 339.356 218.296 340.156 218.296C340.972 218.296 341.716 218.104 342.388 217.72C343.076 217.32 343.62 216.752 344.02 216.016C344.42 215.264 344.62 214.384 344.62 213.376ZM351.911 209.272C352.343 208.52 352.983 207.896 353.831 207.4C354.695 206.888 355.695 206.632 356.831 206.632C357.999 206.632 359.055 206.912 359.999 207.472C360.959 208.032 361.711 208.824 362.255 209.848C362.799 210.856 363.071 212.032 363.071 213.376C363.071 214.704 362.799 215.888 362.255 216.928C361.711 217.968 360.959 218.776 359.999 219.352C359.055 219.928 357.999 220.216 356.831 220.216C355.711 220.216 354.719 219.968 353.855 219.472C353.007 218.96 352.359 218.328 351.911 217.576V226.24H349.727V206.848H351.911V209.272ZM360.839 213.376C360.839 212.384 360.639 211.52 360.239 210.784C359.839 210.048 359.295 209.488 358.607 209.104C357.935 208.72 357.191 208.528 356.375 208.528C355.575 208.528 354.831 208.728 354.143 209.128C353.471 209.512 352.927 210.08 352.511 210.832C352.111 211.568 351.911 212.424 351.911 213.4C351.911 214.392 352.111 215.264 352.511 216.016C352.927 216.752 353.471 217.32 354.143 217.72C354.831 218.104 355.575 218.296 356.375 218.296C357.191 218.296 357.935 218.104 358.607 217.72C359.295 217.32 359.839 216.752 360.239 216.016C360.639 215.264 360.839 214.384 360.839 213.376ZM377.648 220.168C376.544 220.168 375.552 219.976 374.672 219.592C373.808 219.192 373.128 218.648 372.632 217.96C372.136 217.256 371.88 216.448 371.864 215.536H374.192C374.272 216.32 374.592 216.984 375.152 217.528C375.728 218.056 376.56 218.32 377.648 218.32C378.688 218.32 379.504 218.064 380.096 217.552C380.704 217.024 381.008 216.352 381.008 215.536C381.008 214.896 380.832 214.376 380.48 213.976C380.128 213.576 379.688 213.272 379.16 213.064C378.632 212.856 377.92 212.632 377.024 212.392C375.92 212.104 375.032 211.816 374.36 211.528C373.704 211.24 373.136 210.792 372.656 210.184C372.192 209.56 371.96 208.728 371.96 207.688C371.96 206.776 372.192 205.968 372.656 205.264C373.12 204.56 373.768 204.016 374.6 203.632C375.448 203.248 376.416 203.056 377.504 203.056C379.072 203.056 380.352 203.448 381.344 204.232C382.352 205.016 382.92 206.056 383.048 207.352H380.648C380.568 206.712 380.232 206.152 379.64 205.672C379.048 205.176 378.264 204.928 377.288 204.928C376.376 204.928 375.632 205.168 375.056 205.648C374.48 206.112 374.192 206.768 374.192 207.616C374.192 208.224 374.36 208.72 374.696 209.104C375.048 209.488 375.472 209.784 375.968 209.992C376.48 210.184 377.192 210.408 378.104 210.664C379.208 210.968 380.096 211.272 380.768 211.576C381.44 211.864 382.016 212.32 382.496 212.944C382.976 213.552 383.216 214.384 383.216 215.44C383.216 216.256 383 217.024 382.568 217.744C382.136 218.464 381.496 219.048 380.648 219.496C379.8 219.944 378.8 220.168 377.648 220.168ZM389.094 208.648V216.4C389.094 217.04 389.23 217.496 389.502 217.768C389.774 218.024 390.246 218.152 390.918 218.152H392.526V220H390.558C389.342 220 388.43 219.72 387.822 219.16C387.214 218.6 386.91 217.68 386.91 216.4V208.648H385.206V206.848H386.91V203.536H389.094V206.848H392.526V208.648H389.094ZM400.908 220.216C399.676 220.216 398.556 219.936 397.548 219.376C396.556 218.816 395.772 218.024 395.196 217C394.636 215.96 394.356 214.76 394.356 213.4C394.356 212.056 394.644 210.872 395.22 209.848C395.812 208.808 396.612 208.016 397.62 207.472C398.628 206.912 399.756 206.632 401.004 206.632C402.252 206.632 403.38 206.912 404.388 207.472C405.396 208.016 406.188 208.8 406.764 209.824C407.356 210.848 407.652 212.04 407.652 213.4C407.652 214.76 407.348 215.96 406.74 217C406.148 218.024 405.34 218.816 404.316 219.376C403.292 219.936 402.156 220.216 400.908 220.216ZM400.908 218.296C401.692 218.296 402.428 218.112 403.116 217.744C403.804 217.376 404.356 216.824 404.772 216.088C405.204 215.352 405.42 214.456 405.42 213.4C405.42 212.344 405.212 211.448 404.796 210.712C404.38 209.976 403.836 209.432 403.164 209.08C402.492 208.712 401.764 208.528 400.98 208.528C400.18 208.528 399.444 208.712 398.772 209.08C398.116 209.432 397.588 209.976 397.188 210.712C396.788 211.448 396.588 212.344 396.588 213.4C396.588 214.472 396.78 215.376 397.164 216.112C397.564 216.848 398.092 217.4 398.748 217.768C399.404 218.12 400.124 218.296 400.908 218.296ZM412.708 208.984C413.092 208.232 413.636 207.648 414.34 207.232C415.06 206.816 415.932 206.608 416.956 206.608V208.864H416.38C413.932 208.864 412.708 210.192 412.708 212.848V220H410.524V206.848H412.708V208.984ZM431.477 212.92C431.477 213.336 431.453 213.776 431.405 214.24H420.893C420.973 215.536 421.413 216.552 422.213 217.288C423.029 218.008 424.013 218.368 425.165 218.368C426.109 218.368 426.893 218.152 427.517 217.72C428.157 217.272 428.605 216.68 428.861 215.944H431.213C430.861 217.208 430.157 218.24 429.101 219.04C428.045 219.824 426.733 220.216 425.165 220.216C423.917 220.216 422.797 219.936 421.805 219.376C420.829 218.816 420.061 218.024 419.501 217C418.941 215.96 418.661 214.76 418.661 213.4C418.661 212.04 418.933 210.848 419.477 209.824C420.021 208.8 420.781 208.016 421.757 207.472C422.749 206.912 423.885 206.632 425.165 206.632C426.413 206.632 427.517 206.904 428.477 207.448C429.437 207.992 430.173 208.744 430.685 209.704C431.213 210.648 431.477 211.72 431.477 212.92ZM429.221 212.464C429.221 211.632 429.037 210.92 428.669 210.328C428.301 209.72 427.797 209.264 427.157 208.96C426.533 208.64 425.837 208.48 425.069 208.48C423.965 208.48 423.021 208.832 422.237 209.536C421.469 210.24 421.029 211.216 420.917 212.464H429.221Z" fill="white"/>
<rect width="310" height="100" transform="translate(550 162)" fill="black"/>
<path d="M581 185.682V238.315C581 238.429 581.034 238.541 581.098 238.636C581.161 238.731 581.251 238.805 581.357 238.849C581.462 238.893 581.578 238.904 581.69 238.883C581.803 238.861 581.906 238.806 581.987 238.726L609.392 212L581.987 185.271C581.906 185.191 581.803 185.136 581.69 185.114C581.578 185.093 581.462 185.104 581.357 185.148C581.251 185.192 581.161 185.266 581.098 185.361C581.034 185.456 581 185.568 581 185.682Z" fill="#3BCCFF"/>
<path d="M620.883 201.018L586.521 182.086L586.499 182.074C585.907 181.753 585.345 182.554 585.829 183.02L612.766 208.776L620.883 201.018Z" fill="#48FF48"/>
<path d="M585.832 240.98C585.345 241.446 585.907 242.247 586.502 241.926L586.523 241.914L620.883 222.982L612.766 215.221L585.832 240.98Z" fill="#FF3333"/>
<path d="M634.755 208.652L625.16 203.367L616.137 212L625.16 220.629L634.755 215.348C637.366 213.906 637.366 210.094 634.755 208.652Z" fill="#FFD400"/>
<path d="M665.565 208.12C665.101 207.144 664.429 206.392 663.549 205.864C662.669 205.32 661.645 205.048 660.477 205.048C659.309 205.048 658.253 205.32 657.309 205.864C656.381 206.392 655.645 207.16 655.101 208.168C654.573 209.16 654.309 210.312 654.309 211.624C654.309 212.936 654.573 214.088 655.101 215.08C655.645 216.072 656.381 216.84 657.309 217.384C658.253 217.912 659.309 218.176 660.477 218.176C662.109 218.176 663.453 217.688 664.509 216.712C665.565 215.736 666.181 214.416 666.357 212.752H659.685V210.976H668.685V212.656C668.557 214.032 668.125 215.296 667.389 216.448C666.653 217.584 665.685 218.488 664.485 219.16C663.285 219.816 661.949 220.144 660.477 220.144C658.925 220.144 657.509 219.784 656.229 219.064C654.949 218.328 653.933 217.312 653.181 216.016C652.445 214.72 652.077 213.256 652.077 211.624C652.077 209.992 652.445 208.528 653.181 207.232C653.933 205.92 654.949 204.904 656.229 204.184C657.509 203.448 658.925 203.08 660.477 203.08C662.253 203.08 663.821 203.52 665.181 204.4C666.557 205.28 667.557 206.52 668.181 208.12H665.565ZM677.309 220.216C676.077 220.216 674.957 219.936 673.949 219.376C672.957 218.816 672.173 218.024 671.597 217C671.037 215.96 670.757 214.76 670.757 213.4C670.757 212.056 671.045 210.872 671.621 209.848C672.213 208.808 673.013 208.016 674.021 207.472C675.029 206.912 676.157 206.632 677.405 206.632C678.653 206.632 679.781 206.912 680.789 207.472C681.797 208.016 682.589 208.8 683.165 209.824C683.757 210.848 684.053 212.04 684.053 213.4C684.053 214.76 683.749 215.96 683.141 217C682.549 218.024 681.741 218.816 680.717 219.376C679.693 219.936 678.557 220.216 677.309 220.216ZM677.309 218.296C678.093 218.296 678.829 218.112 679.517 217.744C680.205 217.376 680.757 216.824 681.173 216.088C681.605 215.352 681.821 214.456 681.821 213.4C681.821 212.344 681.613 211.448 681.197 210.712C680.781 209.976 680.237 209.432 679.565 209.08C678.893 208.712 678.165 208.528 677.381 208.528C676.581 208.528 675.845 208.712 675.173 209.08C674.517 209.432 673.989 209.976 673.589 210.712C673.189 211.448 672.989 212.344 672.989 213.4C672.989 214.472 673.181 215.376 673.565 216.112C673.965 216.848 674.493 217.4 675.149 217.768C675.805 218.12 676.525 218.296 677.309 218.296ZM692.66 220.216C691.428 220.216 690.308 219.936 689.3 219.376C688.308 218.816 687.524 218.024 686.948 217C686.388 215.96 686.108 214.76 686.108 213.4C686.108 212.056 686.396 210.872 686.972 209.848C687.564 208.808 688.364 208.016 689.372 207.472C690.38 206.912 691.508 206.632 692.756 206.632C694.004 206.632 695.132 206.912 696.14 207.472C697.148 208.016 697.94 208.8 698.516 209.824C699.108 210.848 699.404 212.04 699.404 213.4C699.404 214.76 699.1 215.96 698.492 217C697.9 218.024 697.092 218.816 696.068 219.376C695.044 219.936 693.908 220.216 692.66 220.216ZM692.66 218.296C693.444 218.296 694.18 218.112 694.868 217.744C695.556 217.376 696.108 216.824 696.524 216.088C696.956 215.352 697.172 214.456 697.172 213.4C697.172 212.344 696.964 211.448 696.548 210.712C696.132 209.976 695.588 209.432 694.916 209.08C694.244 208.712 693.516 208.528 692.732 208.528C691.932 208.528 691.196 208.712 690.524 209.08C689.868 209.432 689.34 209.976 688.94 210.712C688.54 211.448 688.34 212.344 688.34 213.4C688.34 214.472 688.532 215.376 688.916 216.112C689.316 216.848 689.844 217.4 690.5 217.768C691.156 218.12 691.876 218.296 692.66 218.296ZM707.7 206.632C708.836 206.632 709.828 206.88 710.676 207.376C711.54 207.872 712.18 208.496 712.596 209.248V206.848H714.804V220.288C714.804 221.488 714.548 222.552 714.036 223.48C713.524 224.424 712.788 225.16 711.828 225.688C710.884 226.216 709.78 226.48 708.516 226.48C706.788 226.48 705.348 226.072 704.196 225.256C703.044 224.44 702.364 223.328 702.156 221.92H704.316C704.556 222.72 705.052 223.36 705.804 223.84C706.556 224.336 707.46 224.584 708.516 224.584C709.716 224.584 710.692 224.208 711.444 223.456C712.212 222.704 712.596 221.648 712.596 220.288V217.528C712.164 218.296 711.524 218.936 710.676 219.448C709.828 219.96 708.836 220.216 707.7 220.216C706.532 220.216 705.468 219.928 704.508 219.352C703.564 218.776 702.82 217.968 702.276 216.928C701.732 215.888 701.46 214.704 701.46 213.376C701.46 212.032 701.732 210.856 702.276 209.848C702.82 208.824 703.564 208.032 704.508 207.472C705.468 206.912 706.532 206.632 707.7 206.632ZM712.596 213.4C712.596 212.408 712.396 211.544 711.996 210.808C711.596 210.072 711.052 209.512 710.364 209.128C709.692 208.728 708.948 208.528 708.132 208.528C707.316 208.528 706.572 208.72 705.9 209.104C705.228 209.488 704.692 210.048 704.292 210.784C703.892 211.52 703.692 212.384 703.692 213.376C703.692 214.384 703.892 215.264 704.292 216.016C704.692 216.752 705.228 217.32 705.9 217.72C706.572 218.104 707.316 218.296 708.132 218.296C708.948 218.296 709.692 218.104 710.364 217.72C711.052 217.32 711.596 216.752 711.996 216.016C712.396 215.264 712.596 214.392 712.596 213.4ZM720.679 202.24V220H718.495V202.24H720.679ZM736.401 212.92C736.401 213.336 736.377 213.776 736.329 214.24H725.817C725.897 215.536 726.337 216.552 727.137 217.288C727.953 218.008 728.937 218.368 730.089 218.368C731.033 218.368 731.817 218.152 732.441 217.72C733.081 217.272 733.529 216.68 733.785 215.944H736.137C735.785 217.208 735.081 218.24 734.025 219.04C732.969 219.824 731.657 220.216 730.089 220.216C728.841 220.216 727.721 219.936 726.729 219.376C725.753 218.816 724.985 218.024 724.425 217C723.865 215.96 723.585 214.76 723.585 213.4C723.585 212.04 723.857 210.848 724.401 209.824C724.945 208.8 725.705 208.016 726.681 207.472C727.673 206.912 728.809 206.632 730.089 206.632C731.337 206.632 732.441 206.904 733.401 207.448C734.361 207.992 735.097 208.744 735.609 209.704C736.137 210.648 736.401 211.72 736.401 212.92ZM734.145 212.464C734.145 211.632 733.961 210.92 733.593 210.328C733.225 209.72 732.721 209.264 732.081 208.96C731.457 208.64 730.761 208.48 729.993 208.48C728.889 208.48 727.945 208.832 727.161 209.536C726.393 210.24 725.953 211.216 725.841 212.464H734.145ZM756.866 208.168C756.866 209.56 756.386 210.72 755.426 211.648C754.482 212.56 753.034 213.016 751.082 213.016H747.866V220H745.682V203.272H751.082C752.97 203.272 754.402 203.728 755.378 204.64C756.37 205.552 756.866 206.728 756.866 208.168ZM751.082 211.216C752.298 211.216 753.194 210.952 753.77 210.424C754.346 209.896 754.634 209.144 754.634 208.168C754.634 206.104 753.45 205.072 751.082 205.072H747.866V211.216H751.082ZM761.765 202.24V220H759.581V202.24H761.765ZM764.671 213.376C764.671 212.032 764.943 210.856 765.487 209.848C766.031 208.824 766.775 208.032 767.719 207.472C768.679 206.912 769.743 206.632 770.911 206.632C772.063 206.632 773.063 206.88 773.911 207.376C774.759 207.872 775.391 208.496 775.807 209.248V206.848H778.015V220H775.807V217.552C775.375 218.32 774.727 218.96 773.863 219.472C773.015 219.968 772.023 220.216 770.887 220.216C769.719 220.216 768.663 219.928 767.719 219.352C766.775 218.776 766.031 217.968 765.487 216.928C764.943 215.888 764.671 214.704 764.671 213.376ZM775.807 213.4C775.807 212.408 775.607 211.544 775.207 210.808C774.807 210.072 774.263 209.512 773.575 209.128C772.903 208.728 772.159 208.528 771.343 208.528C770.527 208.528 769.783 208.72 769.111 209.104C768.439 209.488 767.903 210.048 767.503 210.784C767.103 211.52 766.903 212.384 766.903 213.376C766.903 214.384 767.103 215.264 767.503 216.016C767.903 216.752 768.439 217.32 769.111 217.72C769.783 218.104 770.527 218.296 771.343 218.296C772.159 218.296 772.903 218.104 773.575 217.72C774.263 217.32 774.807 216.752 775.207 216.016C775.607 215.264 775.807 214.392 775.807 213.4ZM793.034 206.848L785.114 226.192H782.858L785.45 219.856L780.146 206.848H782.57L786.698 217.504L790.778 206.848H793.034Z" fill="white"/>
<defs>
<linearGradient id="paint0_linear_20_69" x1="271" y1="182" x2="271" y2="242" gradientUnits="userSpaceOnUse">
<stop stop-color="#15C9FB"/>
<stop offset="1" stop-color="#1977F3"/>
</linearGradient>
<linearGradient id="paint1_linear_20_69" x1="271" y1="182" x2="271" y2="242" gradientUnits="userSpaceOnUse">
<stop stop-color="#15C9FB"/>
<stop offset="1" stop-color="#1977F3"/>
</linearGradient>
</defs>
</svg>
