<svg width="67" height="30" viewBox="0 0 67 30" fill="none" xmlns="http://www.w3.org/2000/svg">
<path d="M14.5692 29.2C12.7292 29.2 10.9692 28.88 9.28924 28.24C7.63591 27.5733 6.16924 26.6133 4.88924 25.36C3.60924 24.08 2.59591 22.5467 1.84924 20.76C1.12924 18.9467 0.769243 16.88 0.769243 14.56C0.769243 12.56 1.14258 10.7067 1.88924 9C2.63591 7.29333 3.66258 5.8 4.96924 4.52C6.30258 3.21333 7.84924 2.2 9.60924 1.48C11.3692 0.759999 13.2759 0.399999 15.3292 0.399999C17.8892 0.399999 20.2092 0.959999 22.2892 2.08C24.3692 3.17333 25.9159 4.68 26.9292 6.6L21.1292 11.04C20.5692 9.92 19.7292 9.02667 18.6092 8.36C17.4892 7.66666 16.3026 7.32 15.0492 7.32C14.1159 7.32 13.2626 7.50667 12.4892 7.88C11.7159 8.25333 11.0359 8.77333 10.4492 9.44C9.88924 10.1067 9.44924 10.9067 9.12924 11.84C8.83591 12.7467 8.68924 13.7467 8.68924 14.84C8.68924 15.96 8.84924 16.9733 9.16924 17.88C9.48924 18.7867 9.92924 19.5733 10.4892 20.24C11.0759 20.88 11.7692 21.3867 12.5692 21.76C13.3692 22.1067 14.2626 22.28 15.2492 22.28C16.5026 22.28 17.7026 21.9733 18.8492 21.36C19.9959 20.72 21.0359 19.8267 21.9692 18.68V26.28C19.8359 28.2267 17.3692 29.2 14.5692 29.2ZM21.5692 19.48H16.3292V13.88H28.0092V29H21.5692V19.48ZM31.8596 29V0.599998H42.7796C45.9262 0.599998 48.5529 1.24 50.6596 2.52C52.7929 3.77333 54.3929 5.48 55.4596 7.64C56.5529 9.77333 57.0996 12.1467 57.0996 14.76C57.0996 17.64 56.4996 20.1467 55.2996 22.28C54.1262 24.4133 52.4596 26.0667 50.2996 27.24C48.1662 28.4133 45.6596 29 42.7796 29H31.8596ZM49.1796 14.76C49.1796 13.2933 48.9262 12.0133 48.4196 10.92C47.9129 9.8 47.1796 8.93333 46.2196 8.32C45.2596 7.70667 44.1129 7.4 42.7796 7.4H39.6596V22.2H42.7796C44.1396 22.2 45.2862 21.88 46.2196 21.24C47.1796 20.6 47.9129 19.72 48.4196 18.6C48.9262 17.4533 49.1796 16.1733 49.1796 14.76ZM60.0524 29V21.64H66.2124V29H60.0524Z" fill="white"/>
</svg>
