<svg width="19" height="19" viewBox="0 0 19 19" fill="none" xmlns="http://www.w3.org/2000/svg">
<path d="M16.5219 2.82743C16.1843 2.48998 15.7266 2.30042 15.2493 2.30042C14.772 2.30042 14.3142 2.48998 13.9767 2.82743L7.14929 9.65483V12.2H9.69449L16.5219 5.37263C16.8593 5.03508 17.0489 4.57733 17.0489 4.10003C17.0489 3.62274 16.8593 3.16498 16.5219 2.82743Z" fill="white"/>
<path fill-rule="evenodd" clip-rule="evenodd" d="M2.64929 5.89998C2.64929 5.42259 2.83893 4.96475 3.1765 4.62718C3.51407 4.28962 3.9719 4.09998 4.44929 4.09998H8.04929C8.28799 4.09998 8.51691 4.1948 8.68569 4.36358C8.85447 4.53236 8.94929 4.76128 8.94929 4.99998C8.94929 5.23867 8.85447 5.46759 8.68569 5.63637C8.51691 5.80515 8.28799 5.89998 8.04929 5.89998H4.44929V14.9H13.4493V11.3C13.4493 11.0613 13.5441 10.8324 13.7129 10.6636C13.8817 10.4948 14.1106 10.4 14.3493 10.4C14.588 10.4 14.8169 10.4948 14.9857 10.6636C15.1545 10.8324 15.2493 11.0613 15.2493 11.3V14.9C15.2493 15.3774 15.0596 15.8352 14.7221 16.1728C14.3845 16.5103 13.9267 16.7 13.4493 16.7H4.44929C3.9719 16.7 3.51407 16.5103 3.1765 16.1728C2.83893 15.8352 2.64929 15.3774 2.64929 14.9V5.89998Z" fill="white"/>
</svg>
